<?xml version="1.0" encoding="utf-8"?>
<!-- Generator: Adobe Illustrator 16.0.0, SVG Export Plug-In . SVG Version: 6.00 Build 0)  -->
<!DOCTYPE svg PUBLIC "-//W3C//DTD SVG 1.1//EN" "http://www.w3.org/Graphics/SVG/1.1/DTD/svg11.dtd">
<svg version="1.1" id="Layer_1" xmlns="http://www.w3.org/2000/svg" xmlns:xlink="http://www.w3.org/1999/xlink" x="0px" y="0px"
	 width="1200px" height="595px" viewBox="0 0 1200 595" enable-background="new 0 0 1200 595" xml:space="preserve">
<path fill="#57BD91" stroke="#000000" stroke-miterlimit="10" d="M523.876,458.236H50.858c0,0-44.173-11.043-44.173-44.175
	c0-33.127,44.173-33.127,44.173-33.127h1084.08c0,0,46.012-3.683,46.012,38.65c0,42.332-57.058,38.651-57.058,38.651H523.876z"/>
<path fill="#BDE1CD" stroke="#000000" stroke-miterlimit="10" d="M185.217,458.236c0,0,23.927,93.499-49.695,119.451
	c0,0,29.45-76.957-23.927-119.372"/>
<path fill="#57BD91" stroke="#000000" stroke-miterlimit="10" d="M523.876,458.236H50.858c0,0-44.173-11.043-44.173-44.175
	c0-33.127,44.173-33.127,44.173-33.127h1084.08c0,0,46.012-3.683,46.012,38.65c0,42.332-57.058,38.651-57.058,38.651H523.876z"/>
<path fill="#57BD91" stroke="#000000" stroke-miterlimit="10" d="M523.876,458.236H50.858c0,0-44.173-11.043-44.173-44.175
	c0-33.127,44.173-33.127,44.173-33.127h1084.08c0,0,46.012-3.683,46.012,38.65c0,42.332-57.058,38.651-57.058,38.651H523.876z"/>
<path fill="#57BD91" stroke="#000000" stroke-miterlimit="10" d="M523.876,458.236H50.858c0,0-44.173-11.043-44.173-44.175
	c0-33.127,44.173-33.127,44.173-33.127h1084.08c0,0,46.012-3.683,46.012,38.65c0,42.332-57.058,38.651-57.058,38.651H523.876z"/>
<path fill="#57BD91" stroke="#000000" stroke-miterlimit="10" d="M523.876,458.236H50.858c0,0-44.173-11.043-44.173-44.175
	c0-33.127,44.173-33.127,44.173-33.127h1084.08c0,0,46.012-3.683,46.012,38.65c0,42.332-57.058,38.651-57.058,38.651H523.876z"/>
<linearGradient id="SVGID_1_" gradientUnits="userSpaceOnUse" x1="6.6846" y1="419.5859" x2="1180.9492" y2="419.5859">
	<stop  offset="0" style="stop-color:#57BD91"/>
	<stop  offset="0.2171" style="stop-color:#7BC7A2;stop-opacity:0.7829"/>
	<stop  offset="0.6888" style="stop-color:#C7E5D5;stop-opacity:0.3112"/>
	<stop  offset="1" style="stop-color:#FFFFFF;stop-opacity:0"/>
</linearGradient>
<path fill="url(#SVGID_1_)" stroke="#000000" stroke-miterlimit="10" d="M523.876,458.236H50.858c0,0-44.173-11.043-44.173-44.175
	c0-33.127,44.173-33.127,44.173-33.127h1084.08c0,0,46.012-3.683,46.012,38.65c0,42.332-57.058,38.651-57.058,38.651H523.876z"/>
<path fill="#57BD91" stroke="#000000" stroke-miterlimit="10" d="M271.722,458.315c0,0-1.841,58.818-36.811,80.902
	c0,0-5.521-80.821-33.129-80.902C174.174,458.236,271.722,458.315,271.722,458.315z"/>
<rect x="182.914" y="74.865" fill="#FFF6BF" stroke="#000000" stroke-miterlimit="10" width="38.248" height="38.248"/>
<rect x="220.975" y="74.865" fill="#63635E" stroke="#000000" stroke-miterlimit="10" width="38.248" height="38.248"/>
<rect x="259.223" y="74.865" fill="#FFF6BF" stroke="#000000" stroke-miterlimit="10" width="38.248" height="38.248"/>
<rect x="297.47" y="74.865" fill="#595954" stroke="#000000" stroke-miterlimit="10" width="38.248" height="38.248"/>
<rect x="335.718" y="74.865" fill="#FFF6BF" stroke="#000000" stroke-miterlimit="10" width="38.248" height="38.248"/>
<rect x="373.966" y="74.865" fill="#595954" stroke="#000000" stroke-miterlimit="10" width="38.25" height="38.248"/>
<rect x="412.216" y="74.865" fill="#FFF6BF" stroke="#000000" stroke-miterlimit="10" width="38.248" height="38.248"/>
<rect x="450.464" y="74.865" fill="#595954" stroke="#000000" stroke-miterlimit="10" width="38.248" height="38.248"/>
<rect x="182.725" y="113.113" fill="#595954" stroke="#000000" stroke-miterlimit="10" width="38.25" height="38.249"/>
<rect x="221.162" y="113.113" fill="#FFF6BF" stroke="#000000" stroke-miterlimit="10" width="38.248" height="38.249"/>
<rect x="259.223" y="113.113" fill="#595954" stroke="#000000" stroke-miterlimit="10" width="38.248" height="38.249"/>
<rect x="297.47" y="113.113" fill="#FFF6BF" stroke="#000000" stroke-miterlimit="10" width="38.248" height="38.249"/>
<rect x="335.718" y="113.113" fill="#595954" stroke="#000000" stroke-miterlimit="10" width="38.248" height="38.249"/>
<rect x="373.966" y="113.113" fill="#FFF6BF" stroke="#000000" stroke-miterlimit="10" width="38.25" height="38.249"/>
<rect x="412.404" y="113.113" fill="#595954" stroke="#000000" stroke-miterlimit="10" width="38.25" height="38.249"/>
<rect x="450.464" y="113.113" fill="#FFF6BF" stroke="#000000" stroke-miterlimit="10" width="38.248" height="38.249"/>
<rect x="182.725" y="151.362" fill="#FFF6BF" stroke="#000000" stroke-miterlimit="10" width="38.25" height="38.249"/>
<rect x="220.975" y="151.362" fill="#595954" stroke="#000000" stroke-miterlimit="10" width="38.248" height="38.249"/>
<rect x="259.41" y="151.362" fill="#FFF6BF" stroke="#000000" stroke-miterlimit="10" width="38.25" height="38.249"/>
<rect x="297.47" y="151.362" fill="#595954" stroke="#000000" stroke-miterlimit="10" width="38.248" height="38.249"/>
<rect x="335.718" y="151.362" fill="#FFF6BF" stroke="#000000" stroke-miterlimit="10" width="38.248" height="38.249"/>
<rect x="374.156" y="151.362" fill="#595954" stroke="#000000" stroke-miterlimit="10" width="38.249" height="38.249"/>
<rect x="412.216" y="151.362" fill="#FFF6BF" stroke="#000000" stroke-miterlimit="10" width="38.248" height="38.249"/>
<rect x="450.464" y="151.362" fill="#595954" stroke="#000000" stroke-miterlimit="10" width="38.248" height="38.249"/>
<rect x="182.725" y="189.611" fill="#595954" stroke="#000000" stroke-miterlimit="10" width="38.25" height="38.249"/>
<rect x="220.975" y="189.611" fill="#FFF6BF" stroke="#000000" stroke-miterlimit="10" width="38.248" height="38.249"/>
<rect x="259.223" y="189.611" fill="#595954" stroke="#000000" stroke-miterlimit="10" width="38.248" height="38.249"/>
<rect x="297.66" y="189.611" fill="#FFF6BF" stroke="#000000" stroke-miterlimit="10" width="38.248" height="38.249"/>
<rect x="335.908" y="189.611" fill="#595954" stroke="#000000" stroke-miterlimit="10" width="38.248" height="38.249"/>
<rect x="373.966" y="189.611" fill="#FFF6BF" stroke="#000000" stroke-miterlimit="10" width="38.25" height="38.249"/>
<rect x="412.216" y="189.611" fill="#595954" stroke="#000000" stroke-miterlimit="10" width="38.248" height="38.249"/>
<rect x="450.464" y="189.611" fill="#FFF6BF" stroke="#000000" stroke-miterlimit="10" width="38.248" height="38.249"/>
<rect x="182.725" y="227.859" fill="#FFF6BF" stroke="#000000" stroke-miterlimit="10" width="38.25" height="38.249"/>
<rect x="220.975" y="227.859" fill="#595954" stroke="#000000" stroke-miterlimit="10" width="38.248" height="38.249"/>
<rect x="259.223" y="227.859" fill="#FFF6BF" stroke="#000000" stroke-miterlimit="10" width="38.248" height="38.249"/>
<rect x="297.66" y="227.859" fill="#595954" stroke="#000000" stroke-miterlimit="10" width="38.248" height="38.249"/>
<rect x="335.908" y="227.859" fill="#FFF6BF" stroke="#000000" stroke-miterlimit="10" width="38.248" height="38.249"/>
<rect x="373.966" y="227.859" fill="#595954" stroke="#000000" stroke-miterlimit="10" width="38.25" height="38.249"/>
<rect x="412.216" y="227.859" fill="#FFF6BF" stroke="#000000" stroke-miterlimit="10" width="38.248" height="38.249"/>
<rect x="450.464" y="227.859" fill="#595954" stroke="#000000" stroke-miterlimit="10" width="38.248" height="38.249"/>
<rect x="182.725" y="266.108" fill="#595954" stroke="#000000" stroke-miterlimit="10" width="38.25" height="38.248"/>
<rect x="220.975" y="266.108" fill="#FFF6BF" stroke="#000000" stroke-miterlimit="10" width="38.248" height="38.248"/>
<rect x="259.41" y="266.108" fill="#595954" stroke="#000000" stroke-miterlimit="10" width="38.25" height="38.248"/>
<rect x="297.47" y="266.108" fill="#FFF6BF" stroke="#000000" stroke-miterlimit="10" width="38.248" height="38.248"/>
<rect x="335.718" y="266.108" fill="#595954" stroke="#000000" stroke-miterlimit="10" width="38.248" height="38.248"/>
<rect x="374.156" y="266.108" fill="#FFF6BF" stroke="#000000" stroke-miterlimit="10" width="38.249" height="38.248"/>
<rect x="412.216" y="266.108" fill="#595954" stroke="#000000" stroke-miterlimit="10" width="38.248" height="38.248"/>
<rect x="450.464" y="266.108" fill="#FFF6BF" stroke="#000000" stroke-miterlimit="10" width="38.248" height="38.248"/>
<rect x="182.725" y="304.355" fill="#FFF6BF" stroke="#000000" stroke-miterlimit="10" width="38.25" height="38.25"/>
<rect x="221.162" y="304.355" fill="#595954" stroke="#000000" stroke-miterlimit="10" width="38.248" height="38.25"/>
<rect x="259.223" y="304.355" fill="#FFF6BF" stroke="#000000" stroke-miterlimit="10" width="38.248" height="38.25"/>
<rect x="297.47" y="304.355" fill="#595954" stroke="#000000" stroke-miterlimit="10" width="38.248" height="38.25"/>
<rect x="335.718" y="304.355" fill="#FFF6BF" stroke="#000000" stroke-miterlimit="10" width="38.248" height="38.25"/>
<rect x="373.966" y="304.355" fill="#595954" stroke="#000000" stroke-miterlimit="10" width="38.25" height="38.25"/>
<rect x="412.404" y="304.355" fill="#FFF6BF" stroke="#000000" stroke-miterlimit="10" width="38.25" height="38.25"/>
<rect x="450.464" y="304.355" fill="#595954" stroke="#000000" stroke-miterlimit="10" width="38.248" height="38.25"/>
<rect x="182.914" y="342.605" fill="#595954" stroke="#000000" stroke-miterlimit="10" width="38.248" height="38.247"/>
<rect x="220.975" y="342.605" fill="#FFF6BF" stroke="#000000" stroke-miterlimit="10" width="38.248" height="38.247"/>
<rect x="259.223" y="342.605" fill="#595954" stroke="#000000" stroke-miterlimit="10" width="38.248" height="38.247"/>
<rect x="297.47" y="342.605" fill="#FFF6BF" stroke="#000000" stroke-miterlimit="10" width="38.248" height="38.247"/>
<rect x="335.718" y="342.605" fill="#595954" stroke="#000000" stroke-miterlimit="10" width="38.248" height="38.247"/>
<rect x="373.966" y="342.605" fill="#FFF6BF" stroke="#000000" stroke-miterlimit="10" width="38.25" height="38.247"/>
<rect x="412.216" y="342.605" fill="#595954" stroke="#000000" stroke-miterlimit="10" width="38.248" height="38.247"/>
<rect x="450.654" y="342.605" fill="#FFF6BF" stroke="#000000" stroke-miterlimit="10" width="38.248" height="38.247"/>
<path fill="#1B1B1B" stroke="#000000" stroke-miterlimit="10" d="M192.993,121.088v2.047c0,0,4.209-0.113,5.12,10.922H194.7v3.755
	h2.047c0,0-3.37,10.581,5.312,10.581c8.681,0,5.383-10.581,5.383-10.581h2.275v-3.071h-3.527c0,0-1.024-6.257,4.55-11.492v-2.162
	h2.049v-5.006h-21.503v4.893L192.993,121.088z"/>
<path fill="#FFFFFF" stroke="#000000" stroke-miterlimit="10" d="M192.993,334.63v-2.047c0,0,4.209,0.113,5.12-10.922H194.7v-3.756
	h2.047c0,0-3.37-10.579,5.312-10.579c8.681,0,5.383,10.579,5.383,10.579h2.275v3.071h-3.527c0,0-1.024,6.259,4.55,11.491v2.162
	h2.049v5.007h-21.503v-4.894L192.993,334.63z"/>
<path fill="#FFFFFF" stroke="#000000" stroke-miterlimit="10" d="M231.052,334.63v-2.047c0,0,4.21,0.113,5.12-10.922h-3.413v-3.756
	h2.048c0,0-3.37-10.579,5.312-10.579s5.383,10.579,5.383,10.579h2.275v3.071h-3.527c0,0-1.023,6.259,4.551,11.491v2.162h2.048v5.007
	h-21.503v-4.894L231.052,334.63z"/>
<path fill="#FFFFFF" stroke="#000000" stroke-miterlimit="10" d="M269.491,334.63v-2.047c0,0,4.208,0.113,5.119-10.922h-3.413
	v-3.756h2.046c0,0-3.368-10.579,5.312-10.579c8.684,0,5.384,10.579,5.384,10.579h2.277v3.071h-3.528c0,0-1.024,6.259,4.551,11.491
	v2.162h2.049v5.007h-21.505v-4.894L269.491,334.63z"/>
<path fill="#FFFFFF" stroke="#000000" stroke-miterlimit="10" d="M307.549,334.63v-2.047c0,0,4.21,0.113,5.119-10.922h-3.412v-3.756
	h2.048c0,0-3.37-10.579,5.312-10.579c8.682,0,5.382,10.579,5.382,10.579h2.276v3.071h-3.527c0,0-1.024,6.259,4.551,11.491v2.162
	h2.047v5.007h-21.503v-4.894L307.549,334.63z"/>
<path fill="#FFFFFF" stroke="#000000" stroke-miterlimit="10" d="M384.235,334.63v-2.047c0,0,4.21,0.113,5.12-10.922h-3.413v-3.756
	h2.047c0,0-3.37-10.579,5.312-10.579c8.683,0,5.383,10.579,5.383,10.579h2.275v3.071h-3.527c0,0-1.024,6.259,4.552,11.491v2.162
	h2.047v5.007h-21.503v-4.894L384.235,334.63z"/>
<path fill="#FFFFFF" stroke="#000000" stroke-miterlimit="10" d="M422.485,334.63v-2.047c0,0,4.209,0.113,5.12-10.922h-3.415v-3.756
	h2.049c0,0-3.37-10.579,5.312-10.579s5.383,10.579,5.383,10.579h2.275v3.071h-3.527c0,0-1.024,6.259,4.551,11.491v2.162h2.047v5.007
	h-21.503v-4.894L422.485,334.63z"/>
<path fill="#FFFFFF" stroke="#000000" stroke-miterlimit="10" d="M460.732,334.63v-2.047c0,0,4.211,0.113,5.121-10.922h-3.413
	v-3.756h2.047c0,0-3.37-10.579,5.312-10.579c8.681,0,5.382,10.579,5.382,10.579h2.276v3.071h-3.527c0,0-1.024,6.259,4.55,11.491
	v2.162h2.049v5.007h-21.503v-4.894L460.732,334.63z"/>
<path fill="#FFFFFF" stroke="#000000" stroke-miterlimit="10" d="M345.987,334.63v-2.047c0,0,4.208,0.113,5.119-10.922h-3.413
	v-3.756h2.048c0,0-3.37-10.579,5.312-10.579s5.383,10.579,5.383,10.579h2.275v3.071h-3.527c0,0-1.024,6.259,4.551,11.491v2.162
	h2.048v5.007h-21.502v-4.894L345.987,334.63z"/>
<path fill="#1B1B1B" stroke="#000000" stroke-miterlimit="10" d="M231.241,121.088v2.047c0,0,4.209-0.113,5.12,10.922h-3.413v3.755
	h2.048c0,0-3.37,10.581,5.312,10.581s5.383-10.581,5.383-10.581h2.275v-3.071h-3.527c0,0-1.024-6.257,4.552-11.492v-2.162h2.048
	v-5.006h-21.503v4.893L231.241,121.088z"/>
<path fill="#1B1B1B" stroke="#000000" stroke-miterlimit="10" d="M269.491,121.088v2.047c0,0,4.208-0.113,5.119,10.922h-3.413v3.755
	h2.046c0,0-3.368,10.581,5.312,10.581c8.684,0,5.384-10.581,5.384-10.581h2.277v-3.071h-3.528c0,0-1.024-6.257,4.551-11.492v-2.162
	h2.049v-5.006h-21.505v4.893L269.491,121.088z"/>
<path fill="#1B1B1B" stroke="#000000" stroke-miterlimit="10" d="M307.549,121.088v2.047c0,0,4.21-0.113,5.119,10.922h-3.412v3.755
	h2.048c0,0-3.37,10.581,5.312,10.581c8.682,0,5.382-10.581,5.382-10.581h2.276v-3.071h-3.527c0,0-1.024-6.257,4.551-11.492v-2.162
	h2.047v-5.006h-21.503v4.893L307.549,121.088z"/>
<path fill="#1B1B1B" stroke="#000000" stroke-miterlimit="10" d="M345.798,121.088v2.047c0,0,4.209-0.113,5.119,10.922h-3.413v3.755
	h2.048c0,0-3.369,10.581,5.312,10.581c8.682,0,5.383-10.581,5.383-10.581h2.276v-3.071h-3.528c0,0-1.024-6.257,4.551-11.492v-2.162
	h2.049v-5.006h-21.503v4.893L345.798,121.088z"/>
<path fill="#1B1B1B" stroke="#000000" stroke-miterlimit="10" d="M384.235,121.088v2.047c0,0,4.21-0.113,5.12,10.922h-3.413v3.755
	h2.047c0,0-3.37,10.581,5.312,10.581c8.683,0,5.383-10.581,5.383-10.581h2.275v-3.071h-3.525c0,0-1.026-6.257,4.55-11.492v-2.162
	h2.047v-5.006h-21.503v4.893L384.235,121.088z"/>
<path fill="#1B1B1B" stroke="#000000" stroke-miterlimit="10" d="M422.294,121.088v2.047c0,0,4.21-0.113,5.12,10.922h-3.413v3.755
	h2.048c0,0-3.371,10.581,5.312,10.581s5.383-10.581,5.383-10.581h2.276v-3.071h-3.527c0,0-1.024-6.257,4.55-11.492v-2.162h2.047
	v-5.006h-21.503v4.893L422.294,121.088z"/>
<path fill="#1B1B1B" stroke="#000000" stroke-miterlimit="10" d="M460.732,121.088v2.047c0,0,4.211-0.113,5.121,10.922h-3.413v3.755
	h2.047c0,0-3.37,10.581,5.312,10.581c8.681,0,5.382-10.581,5.382-10.581h2.276v-3.071h-3.527c0,0-1.024-6.257,4.55-11.492v-2.162
	h2.049v-5.006h-21.503v4.893L460.732,121.088z"/>
<polygon stroke="#000000" stroke-miterlimit="10" points="189.714,79.686 189.714,82.382 191.472,82.382 191.472,85.9 
	194.697,89.124 194.697,100.438 191.327,103.808 191.327,108.293 195.225,108.293 195.225,105.948 199.211,105.948 199.211,108.293 
	204.37,108.293 204.37,106.183 208.355,106.183 208.355,108.293 212.812,108.293 212.812,103.135 209.586,99.911 209.586,89.066 
	212.372,86.28 212.372,82.5 213.983,82.5 213.983,79.686 "/>
<polygon stroke="#000000" stroke-miterlimit="10" points="457.454,79.686 457.454,82.382 459.213,82.382 459.213,85.9 
	462.437,89.124 462.437,100.438 459.067,103.808 459.067,108.293 462.965,108.293 462.965,105.948 466.95,105.948 466.95,108.293 
	472.11,108.293 472.11,106.183 476.097,106.183 476.097,108.293 480.552,108.293 480.552,103.135 477.327,99.911 477.327,89.066 
	480.112,86.28 480.112,82.5 481.724,82.5 481.724,79.686 "/>
<path stroke="#000000" stroke-miterlimit="10" d="M245.198,77.691h-12.294c0,0-3.328-1.182,7.202,12.056v4.239
	c0,0,2.254,1.909,2.019,4.391c0,0-0.591-4.373-6.975-6.62c0,0-4.254-2.6-5.673-6.619c-1.417-4.02-3.663,0.209-0.59,2.882
	c0,0-0.828-5.392-4.965,0c0,0-1.301,2.319,3.544,9.883c0,0,0.12,4.61,3.547,7.329l-0.354,5.083l4.611-2.72l2.953,2.72l1.884-3.783
	c0,0,17.976,2.192,16.202-28.87L245.198,77.691z"/>
<path stroke="#000000" stroke-miterlimit="10" d="M436.44,77.691h-12.294c0,0-3.327-1.182,7.202,12.056v4.239
	c0,0,2.254,1.909,2.018,4.391c0,0-0.59-4.373-6.973-6.62c0,0-4.255-2.6-5.673-6.619c-1.419-4.02-3.665,0.209-0.593,2.882
	c0,0-0.827-5.392-4.964,0c0,0-1.3,2.319,3.546,9.883c0,0,0.118,4.61,3.546,7.329l-0.354,5.083l4.609-2.72l2.956,2.72l1.882-3.783
	c0,0,17.976,2.192,16.202-28.87L436.44,77.691z"/>
<path stroke="#000000" stroke-miterlimit="10" d="M263.958,111.381l-2.302-2.559c0,0,3.453-2.686,6.011-2.558
	c2.558,0.127,3.453,0.631,6.395-0.005c2.941-0.634,2.302-0.379,2.302-2.169c0,0-5.499-0.895-5.116-2.046l1.023-4.988
	c0,0-3.231-1.151-3.231-5.755c0-4.605,9.32-10.233,9.32-10.233s-2.124,0.055-2.124-2.558c0-2.612-0.103-1.79,2.124-1.79
	c2.224,0,2.566,1.407,2.566,1.407s-0.107,3.436-2.004,2.941c0,0,15.604,8.825,5.755,16.244l0.767,4.477l-5.883,2.557
	c0,0,2.497,2.814,9.464,2.174c0,0,6.011,1.025,6.011,2.558l-2.173,2.304C292.863,111.381,278.41,107.161,263.958,111.381z"/>
<path stroke="#000000" stroke-miterlimit="10" d="M378.892,111.382l-2.301-2.56c0,0,3.453-2.686,6.01-2.558
	c2.558,0.128,3.454,0.631,6.394-0.004c2.943-0.636,2.303-0.379,2.303-2.17c0,0-5.499-0.895-5.116-2.046l1.023-4.988
	c0,0-3.231-1.151-3.231-5.755c0-4.605,9.32-10.233,9.32-10.233s-2.124,0.055-2.124-2.558c0-2.612-0.102-1.79,2.124-1.79
	c2.226,0,2.567,1.407,2.567,1.407s-0.107,3.436-2.005,2.941c0,0,15.604,8.825,5.755,16.244l0.768,4.477l-5.883,2.558
	c0,0,2.497,2.813,9.465,2.174c0,0,6.011,1.023,6.011,2.558l-2.174,2.303C407.798,111.382,393.345,107.161,378.892,111.382z"/>
<path d="M354.999,112.216c0,0-7.584,0.842-12.523-2.732c0,0,0.946-9.456-2.626-11.453c0,0-4.939-5.148-1.892-9.246
	c3.047-4.098,8.024-1.262,8.024-1.262s9.017,3.888,9.017,10.507l-3.486-11.463c0,0,0.525-3.562,2.837-4.823v-3.048h-2.732v-1.26
	h2.838v-1.786h1.365v1.786h2.207v1.471h-2.311v2.943c0,0,6.131,2.73-0.717,16.917c0,0,4.604-16.707,16.477-10.719
	c0,0,4.939,4.624-2.416,11.454c0,0-3.258,6.726-1.472,10.297C367.589,109.8,357.854,112.952,354.999,112.216z"/>
<polygon fill="#FFFFFF" stroke="#000000" stroke-miterlimit="10" points="189.714,376.033 189.714,373.336 191.472,373.336 
	191.472,369.819 194.697,366.595 194.697,355.281 191.327,351.91 191.327,347.426 195.225,347.426 195.225,349.771 199.211,349.771 
	199.211,347.426 204.37,347.426 204.37,349.535 208.355,349.535 208.355,347.426 212.812,347.426 212.812,352.584 209.586,355.809 
	209.586,366.653 212.372,369.438 212.372,373.219 213.983,373.219 213.983,376.033 "/>
<polygon fill="#FFFFFF" stroke="#000000" stroke-miterlimit="10" points="457.454,376.033 457.454,373.336 459.213,373.336 
	459.213,369.819 462.437,366.595 462.437,355.281 459.067,351.91 459.067,347.426 462.965,347.426 462.965,349.771 466.95,349.771 
	466.95,347.426 472.11,347.426 472.11,349.535 476.097,349.535 476.097,347.426 480.552,347.426 480.552,352.584 477.327,355.809 
	477.327,366.653 480.112,369.438 480.112,373.219 481.724,373.219 481.724,376.033 "/>
<path fill="#FFFFFF" stroke="#000000" stroke-miterlimit="10" d="M245.198,378.028h-12.294c0,0-3.328,1.182,7.202-12.059v-4.237
	c0,0,2.254-1.909,2.019-4.39c0,0-0.591,4.372-6.975,6.619c0,0-4.254,2.6-5.673,6.619c-1.417,4.019-3.663-0.21-0.59-2.881
	c0,0-0.828,5.391-4.965,0c0,0-1.301-2.32,3.544-9.885c0,0,0.12-4.609,3.547-7.329l-0.354-5.082l4.611,2.717l2.953-2.717l1.884,3.781
	c0,0,17.976-2.19,16.202,28.87L245.198,378.028z"/>
<path fill="#FFFFFF" stroke="#000000" stroke-miterlimit="10" d="M436.44,378.028h-12.294c0,0-3.327,1.182,7.202-12.059v-4.237
	c0,0,2.254-1.909,2.018-4.39c0,0-0.59,4.372-6.973,6.619c0,0-4.255,2.6-5.673,6.619c-1.419,4.019-3.665-0.21-0.593-2.881
	c0,0-0.827,5.391-4.964,0c0,0-1.3-2.32,3.546-9.885c0,0,0.118-4.609,3.546-7.329l-0.354-5.082l4.609,2.717l2.956-2.717l1.882,3.781
	c0,0,17.976-2.19,16.202,28.87L436.44,378.028z"/>
<path fill="#FFFFFF" stroke="#000000" stroke-miterlimit="10" d="M263.958,379.12l-2.302-2.557c0,0,3.453-2.687,6.011-2.559
	c2.558,0.128,3.453,0.63,6.395-0.005c2.941-0.635,2.302-0.378,2.302-2.17c0,0-5.499-0.895-5.116-2.046l1.023-4.989
	c0,0-3.231-1.151-3.231-5.755s9.32-10.231,9.32-10.231s-2.124,0.055-2.124-2.558c0-2.614-0.103-1.79,2.124-1.79
	c2.224,0,2.566,1.407,2.566,1.407s-0.107,3.436-2.004,2.94c0,0,15.604,8.825,5.755,16.243l0.767,4.477l-5.883,2.558
	c0,0,2.497,2.813,9.464,2.175c0,0,6.011,1.022,6.011,2.558l-2.173,2.302C292.863,379.12,278.41,374.899,263.958,379.12z"/>
<path fill="#FFFFFF" stroke="#000000" stroke-miterlimit="10" d="M378.892,379.12l-2.301-2.557c0,0,3.453-2.687,6.01-2.559
	c2.558,0.128,3.454,0.63,6.394-0.005c2.943-0.635,2.303-0.378,2.303-2.169c0,0-5.499-0.896-5.116-2.047l1.023-4.989
	c0,0-3.231-1.15-3.231-5.755c0-4.604,9.32-10.231,9.32-10.231s-2.124,0.055-2.124-2.558c0-2.614-0.102-1.79,2.124-1.79
	c2.226,0,2.567,1.407,2.567,1.407s-0.107,3.436-2.005,2.94c0,0,15.604,8.826,5.755,16.243l0.768,4.477l-5.883,2.558
	c0,0,2.497,2.813,9.465,2.175c0,0,6.011,1.022,6.011,2.558l-2.174,2.302C407.798,379.12,393.345,374.899,378.892,379.12z"/>
<path fill="#FFFFFF" d="M354.999,379.958c0,0-7.584,0.84-12.523-2.733c0,0,0.946-9.457-2.626-11.453c0,0-4.939-5.148-1.892-9.247
	c3.047-4.098,8.024-1.26,8.024-1.26s9.017,3.887,9.017,10.507l-3.486-11.464c0,0,0.525-3.562,2.837-4.823v-3.047h-2.732v-1.26h2.838
	v-1.787h1.365v1.787h2.207v1.47h-2.311v2.943c0,0,6.131,2.73-0.717,16.916c0,0,4.604-16.706,16.477-10.717
	c0,0,4.939,4.623-2.416,11.453c0,0-3.258,6.724-1.472,10.297C367.589,377.54,357.854,380.691,354.999,379.958z"/>
<path stroke="#000000" stroke-miterlimit="10" d="M316.711,111.543c0,0-10.557-0.577-11.204-2.016l1.513-3.816l-4.68-7.128
	l-1.081-12.022l5.833,10.943l1.368-13.679L313.715,97l2.996-14.254l2.906,13.608l5.256-12.528l1.583,13.319l5.473-10.438
	l-1.008,12.238l-4.607,7.056l1.511,3.455C327.825,109.454,322.007,112.003,316.711,111.543z"/>
<circle stroke="#000000" stroke-miterlimit="10" cx="301.26" cy="85.301" r="1.764"/>
<circle fill="#FFFFFF" stroke="#000000" stroke-miterlimit="10" cx="301.26" cy="85.301" r="1.043"/>
<circle stroke="#000000" stroke-miterlimit="10" cx="308.294" cy="82.492" r="1.764"/>
<path fill="#FFFFFF" stroke="#000000" stroke-miterlimit="10" d="M309.337,82.492c0,0.578-0.468,1.045-1.044,1.045
	s-1.043-0.467-1.043-1.045c0-0.574,0.467-1.042,1.043-1.042S309.337,81.918,309.337,82.492z"/>
<circle stroke="#000000" stroke-miterlimit="10" cx="316.594" cy="81.45" r="1.763"/>
<circle fill="#FFFFFF" stroke="#000000" stroke-miterlimit="10" cx="316.594" cy="81.45" r="1.044"/>
<circle stroke="#000000" stroke-miterlimit="10" cx="325.032" cy="82.492" r="1.764"/>
<path fill="#FFFFFF" stroke="#000000" stroke-miterlimit="10" d="M326.076,82.492c0,0.578-0.468,1.045-1.044,1.045
	s-1.044-0.467-1.044-1.045c0-0.574,0.468-1.042,1.044-1.042S326.076,81.918,326.076,82.492z"/>
<circle stroke="#000000" stroke-miterlimit="10" cx="331.929" cy="85.301" r="1.764"/>
<circle fill="#FFFFFF" stroke="#000000" stroke-miterlimit="10" cx="331.928" cy="85.301" r="1.045"/>
<path fill="#FFFFFF" stroke="#000000" stroke-miterlimit="10" d="M316.717,378.526c0,0-11.15-0.607-11.835-2.129l1.597-4.029
	l-4.942-7.531l-1.141-12.699l6.16,11.559l1.445-14.45l5.553,13.918l3.164-15.059l3.072,14.374l5.552-13.233l1.674,14.071
	l5.779-11.029l-1.064,12.929l-4.868,7.454l1.597,3.648C328.458,376.319,322.312,379.015,316.717,378.526z"/>
<circle fill="#FFFFFF" stroke="#000000" stroke-miterlimit="10" cx="300.395" cy="350.806" r="1.864"/>
<circle fill="#FFFFFF" stroke="#000000" stroke-miterlimit="10" cx="300.396" cy="350.806" r="1.103"/>
<circle fill="#FFFFFF" stroke="#000000" stroke-miterlimit="10" cx="307.825" cy="347.839" r="1.863"/>
<circle fill="#FFFFFF" stroke="#000000" stroke-miterlimit="10" cx="307.825" cy="347.839" r="1.103"/>
<circle fill="#FFFFFF" stroke="#000000" stroke-miterlimit="10" cx="316.594" cy="346.736" r="1.864"/>
<circle fill="#FFFFFF" stroke="#000000" stroke-miterlimit="10" cx="316.594" cy="346.736" r="1.102"/>
<circle fill="#FFFFFF" stroke="#000000" stroke-miterlimit="10" cx="325.508" cy="347.839" r="1.863"/>
<circle fill="#FFFFFF" stroke="#000000" stroke-miterlimit="10" cx="325.507" cy="347.839" r="1.103"/>
<circle fill="#FFFFFF" stroke="#000000" stroke-miterlimit="10" cx="332.794" cy="350.806" r="1.863"/>
<circle fill="#FFFFFF" stroke="#000000" stroke-miterlimit="10" cx="332.794" cy="350.806" r="1.103"/>
<polygon fill="#D1D3D4" stroke="#000000" stroke-miterlimit="10" points="549.062,380.174 554.974,355.686 630.127,355.686 
	664.748,355.686 672.348,380.174 "/>
<polyline fill="#6D6E71" stroke="#000000" stroke-miterlimit="10" points="630.127,343.02 590.439,343.02 590.439,355.686 
	630.127,355.686 "/>
<polygon fill="#D1D3D4" stroke="#000000" stroke-miterlimit="10" points="590.439,343.02 456.177,343.02 456.177,131.915 
	765.232,131.915 765.232,343.02 "/>
<rect x="474.754" y="145.426" fill="#8BC389" width="65.021" height="11.822"/>
<rect x="507.264" y="168.226" fill="#09B8E9" width="13.933" height="50.665"/>
<rect x="487.42" y="250.978" fill="#335629" width="61.643" height="17.734"/>
<rect x="559.195" y="218.89" fill="#8CC867" width="75.153" height="12.666"/>
<rect x="610.284" y="280.531" fill="#7AC144" width="121.172" height="10.978"/>
<rect x="683.324" y="161.47" fill="#8AD4E7" width="14.357" height="107.242"/>
<rect x="559.195" y="168.226" fill="#F15A26" width="111.675" height="13.511"/>
<rect x="479.821" y="291.509" fill="#8ED5E0" width="110.618" height="12.665"/>
<rect x="712.034" y="200.313" fill="#B3D78B" width="36.311" height="18.577"/>
<rect x="622.526" y="145.426" fill="#8ED3D3" width="38.845" height="11.822"/>
<rect x="641.948" y="307.553" fill="#DDE56C" width="70.086" height="5.066"/>
<path fill="#808285" d="M901.154,383.326c0,0-38.771,2.888-52.382-17.322c0,0-3.299-72.591,6.188-88.265l1.649-7.836l-10.725-1.651
	c0,0,28.047-20.622,86.615-9.073c0,0,39.596-0.413,42.069,3.3c2.476,3.711,26.811,50.317,22.272,100.638l-48.669,2.062
	C948.173,365.179,951.061,380.853,901.154,383.326z M979.52,349.094c0,0,6.599-25.572-12.786-73.416H949.41
	c0,0,10.508,53.313,4.124,73.416H979.52z"/>
<ellipse fill="#424142" cx="898.185" cy="318.159" rx="49.576" ry="12.787"/>
<path d="M848.609,351.979v-33.82c0,0,14.454,12.787,49.575,12.787c37.614,0,38.751-2.923,57.023-11.377l-4.023,47.996
	c0,0,0.951,12.662-52.175,15.86c-53.125,3.199-50.237-17.422-50.237-17.422"/>
<path fill="#B0D9E0" d="M856.609,269.903l92.801,5.775l5.798,43.891l-106.599-1.41C848.609,318.159,850.012,279.288,856.609,269.903
	z"/>
<path fill="#FFFFFF" stroke="#000000" stroke-miterlimit="10" d="M817.751,376.419c0,0.903-0.481,1.637-1.076,1.637h-42.844
	c-0.595,0-1.077-0.733-1.077-1.637v-88.155c0-0.904,0.482-1.638,1.077-1.638h42.844c0.595,0,1.076,0.734,1.076,1.638V376.419z"/>
<path fill="#FFFFFF" stroke="#000000" stroke-miterlimit="10" d="M817.751,376.419c0,0.903-0.481,1.637-1.076,1.637h-42.844
	c-0.595,0-1.077-0.733-1.077-1.637v-88.155c0-0.904,0.482-1.638,1.077-1.638h42.844c0.595,0,1.076,0.734,1.076,1.638V376.419z"/>
<path fill="#C2C5C5" stroke="#000000" stroke-miterlimit="10" d="M817.751,376.419c0,0.903-0.481,1.637-1.076,1.637h-42.844
	c-0.595,0-1.077-0.733-1.077-1.637v-88.155c0-0.904,0.482-1.638,1.077-1.638h42.844c0.595,0,1.076,0.734,1.076,1.638V376.419z"/>
<path fill="#606165" stroke="#000000" stroke-miterlimit="10" d="M816.825,374.724c0,0.87-0.464,1.574-1.035,1.574h-41.198
	c-0.57,0-1.034-0.704-1.034-1.574v-84.765c0-0.871,0.464-1.576,1.034-1.576h41.198c0.571,0,1.035,0.706,1.035,1.576V374.724z"/>
<circle fill="#3B3031" stroke="#000000" stroke-miterlimit="10" cx="795.253" cy="368.721" r="5.984"/>
<rect x="778.104" y="296.677" fill="#AAD488" stroke="#000000" stroke-miterlimit="10" width="2.675" height="35.662"/>
<rect x="788.172" y="297.636" fill="#EFED82" stroke="#000000" stroke-miterlimit="10" width="23.758" height="4.548"/>
<rect x="790.375" y="311.039" fill="#FBB36B" stroke="#000000" stroke-miterlimit="10" width="4.815" height="17.95"/>
<rect x="795.882" y="339.521" fill="#F5EF82" stroke="#000000" stroke-miterlimit="10" width="18.565" height="4.069"/>
<rect x="783.139" y="343.59" fill="#059447" stroke="#000000" stroke-miterlimit="10" width="4.404" height="13.403"/>
<rect x="805.951" y="314.509" fill="#94D8EC" stroke="#000000" stroke-miterlimit="10" width="5.979" height="10.412"/>
<rect x="803.276" y="351.488" fill="#74CFEC" stroke="#000000" stroke-miterlimit="10" width="4.72" height="3.59"/>
</svg>
