<?xml version="1.0" encoding="utf-8"?>
<!-- Generator: Adobe Illustrator 16.0.0, SVG Export Plug-In . SVG Version: 6.00 Build 0)  -->
<!DOCTYPE svg PUBLIC "-//W3C//DTD SVG 1.1//EN" "http://www.w3.org/Graphics/SVG/1.1/DTD/svg11.dtd">
<svg version="1.1" id="Layer_1" xmlns="http://www.w3.org/2000/svg" xmlns:xlink="http://www.w3.org/1999/xlink" x="0px" y="0px"
	 width="1200px" height="595px" viewBox="0 0 1200 595" enable-background="new 0 0 1200 595" xml:space="preserve">
<path fill="#BDE1CD" d="M185.217,458.236c0,0,23.927,93.499-49.695,119.451c0,0,29.45-76.957-23.927-119.372"/>
<path fill="#57BD91" d="M530.058,459.46H57.04c0,0-44.173-11.043-44.173-44.178c0-33.127,44.173-33.127,44.173-33.127h1084.08
	c0,0,46.014-3.683,46.014,38.65c0,42.332-57.061,38.651-57.061,38.651L530.058,459.46L530.058,459.46z"/>
<linearGradient id="SVGID_1_" gradientUnits="userSpaceOnUse" x1="-199.1333" y1="203.1943" x2="975.1338" y2="203.1943" gradientTransform="matrix(1 0 0 -1 212 624)">
	<stop  offset="0" style="stop-color:#57BD91"/>
	<stop  offset="0.2171" style="stop-color:#7BC7A2;stop-opacity:0.7829"/>
	<stop  offset="0.6888" style="stop-color:#C7E5D5;stop-opacity:0.3112"/>
	<stop  offset="1" style="stop-color:#FFFFFF;stop-opacity:0"/>
</linearGradient>
<path fill="url(#SVGID_1_)" d="M530.058,459.46H57.04c0,0-44.173-11.043-44.173-44.178c0-33.127,44.173-33.127,44.173-33.127
	h1084.08c0,0,46.015-3.683,46.015,38.65c0,42.332-57.061,38.651-57.061,38.651L530.058,459.46L530.058,459.46z"/>
<path fill="#57BD91" d="M271.722,458.315c0,0-1.841,58.815-36.811,80.899c0,0-5.521-80.818-33.129-80.899
	C174.174,458.236,271.722,458.315,271.722,458.315z"/>
<rect x="229.771" y="74.293" fill="#FFF6BF" width="38.248" height="38.248"/>
<rect x="267.833" y="74.293" fill="#63635E" width="38.248" height="38.248"/>
<rect x="306.081" y="74.293" fill="#FFF6BF" width="38.248" height="38.248"/>
<rect x="344.328" y="74.293" fill="#595954" width="38.248" height="38.248"/>
<rect x="382.575" y="74.293" fill="#FFF6BF" width="38.248" height="38.248"/>
<rect x="420.823" y="74.293" fill="#595954" width="38.25" height="38.248"/>
<rect x="459.073" y="74.293" fill="#FFF6BF" width="38.248" height="38.248"/>
<rect x="497.321" y="74.293" fill="#595954" width="38.248" height="38.248"/>
<rect x="229.583" y="112.541" fill="#595954" width="38.25" height="38.249"/>
<rect x="268.02" y="112.541" fill="#FFF6BF" width="38.248" height="38.249"/>
<rect x="306.081" y="112.541" fill="#595954" width="38.248" height="38.249"/>
<rect x="344.328" y="112.541" fill="#FFF6BF" width="38.248" height="38.249"/>
<rect x="382.575" y="112.541" fill="#595954" width="38.248" height="38.249"/>
<rect x="420.823" y="112.541" fill="#FFF6BF" width="38.25" height="38.249"/>
<rect x="459.262" y="112.541" fill="#595954" width="38.25" height="38.249"/>
<rect x="497.321" y="112.541" fill="#FFF6BF" width="38.248" height="38.249"/>
<rect x="229.583" y="150.79" fill="#FFF6BF" width="38.25" height="38.249"/>
<rect x="267.833" y="150.79" fill="#595954" width="38.248" height="38.249"/>
<rect x="306.268" y="150.79" fill="#FFF6BF" width="38.25" height="38.249"/>
<rect x="344.328" y="150.79" fill="#595954" width="38.248" height="38.249"/>
<rect x="382.575" y="150.79" fill="#FFF6BF" width="38.248" height="38.249"/>
<rect x="421.014" y="150.79" fill="#595954" width="38.249" height="38.249"/>
<rect x="459.073" y="150.79" fill="#FFF6BF" width="38.248" height="38.249"/>
<rect x="497.321" y="150.79" fill="#595954" width="38.248" height="38.249"/>
<rect x="229.583" y="189.039" fill="#595954" width="38.25" height="38.249"/>
<rect x="267.833" y="189.039" fill="#FFF6BF" width="38.248" height="38.249"/>
<rect x="306.081" y="189.039" fill="#595954" width="38.248" height="38.249"/>
<rect x="344.518" y="189.039" fill="#FFF6BF" width="38.248" height="38.249"/>
<rect x="382.766" y="189.039" fill="#595954" width="38.248" height="38.249"/>
<rect x="420.823" y="189.039" fill="#FFF6BF" width="38.25" height="38.249"/>
<rect x="459.073" y="189.039" fill="#595954" width="38.248" height="38.249"/>
<rect x="497.321" y="189.039" fill="#FFF6BF" width="38.248" height="38.249"/>
<rect x="229.583" y="227.287" fill="#FFF6BF" width="38.25" height="38.249"/>
<rect x="267.833" y="227.287" fill="#595954" width="38.248" height="38.249"/>
<rect x="306.081" y="227.287" fill="#FFF6BF" width="38.248" height="38.249"/>
<rect x="344.518" y="227.287" fill="#595954" width="38.248" height="38.249"/>
<rect x="382.766" y="227.287" fill="#FFF6BF" width="38.248" height="38.249"/>
<rect x="420.823" y="227.287" fill="#595954" width="38.25" height="38.249"/>
<rect x="459.073" y="227.287" fill="#FFF6BF" width="38.248" height="38.249"/>
<rect x="497.321" y="227.287" fill="#595954" width="38.248" height="38.249"/>
<rect x="229.583" y="265.536" fill="#595954" width="38.25" height="38.247"/>
<rect x="267.833" y="265.536" fill="#FFF6BF" width="38.248" height="38.247"/>
<rect x="306.268" y="265.536" fill="#595954" width="38.25" height="38.247"/>
<rect x="344.328" y="265.536" fill="#FFF6BF" width="38.248" height="38.247"/>
<rect x="382.575" y="265.536" fill="#595954" width="38.248" height="38.247"/>
<rect x="421.014" y="265.536" fill="#FFF6BF" width="38.249" height="38.247"/>
<rect x="459.073" y="265.536" fill="#595954" width="38.248" height="38.247"/>
<rect x="497.321" y="265.536" fill="#FFF6BF" width="38.248" height="38.247"/>
<rect x="229.583" y="303.783" fill="#FFF6BF" width="38.25" height="38.25"/>
<rect x="268.02" y="303.783" fill="#595954" width="38.248" height="38.25"/>
<rect x="306.081" y="303.783" fill="#FFF6BF" width="38.248" height="38.25"/>
<rect x="344.328" y="303.783" fill="#595954" width="38.248" height="38.25"/>
<rect x="382.575" y="303.783" fill="#FFF6BF" width="38.248" height="38.25"/>
<rect x="420.823" y="303.783" fill="#595954" width="38.25" height="38.25"/>
<rect x="459.262" y="303.783" fill="#FFF6BF" width="38.25" height="38.25"/>
<rect x="497.321" y="303.783" fill="#595954" width="38.248" height="38.25"/>
<rect x="229.771" y="342.033" fill="#595954" width="38.248" height="38.244"/>
<rect x="267.833" y="342.033" fill="#FFF6BF" width="38.248" height="38.244"/>
<rect x="306.081" y="342.033" fill="#595954" width="38.248" height="38.244"/>
<rect x="344.328" y="342.033" fill="#FFF6BF" width="38.248" height="38.244"/>
<rect x="382.575" y="342.033" fill="#595954" width="38.248" height="38.244"/>
<rect x="420.823" y="342.033" fill="#FFF6BF" width="38.25" height="38.244"/>
<rect x="459.073" y="342.033" fill="#595954" width="38.248" height="38.244"/>
<rect x="497.512" y="342.033" fill="#FFF6BF" width="38.248" height="38.244"/>
<path fill="#1B1B1B" d="M239.851,120.516v2.047c0,0,4.209-0.113,5.12,10.922h-3.413v3.755h2.047c0,0-3.37,10.581,5.312,10.581
	c8.681,0,5.383-10.581,5.383-10.581h2.275v-3.071h-3.527c0,0-1.024-6.257,4.55-11.492v-2.162h2.049v-5.006h-21.503v4.893
	L239.851,120.516z"/>
<path fill="#FFFFFF" stroke="#4C4C4C" stroke-miterlimit="10" d="M239.851,334.059v-2.047c0,0,4.209,0.113,5.12-10.922h-3.413
	v-3.756h2.047c0,0-3.37-10.58,5.312-10.58c8.681,0,5.383,10.58,5.383,10.58h2.275v3.068h-3.527c0,0-1.024,6.262,4.55,11.49v2.162
	h2.049v5.008h-21.503v-4.895L239.851,334.059z"/>
<path fill="#FFFFFF" d="M277.909,334.059v-2.047c0,0,4.21,0.113,5.12-10.922h-3.413v-3.756h2.048c0,0-3.37-10.58,5.312-10.58
	c8.682,0,5.383,10.58,5.383,10.58h2.275v3.068h-3.527c0,0-1.023,6.262,4.551,11.49v2.162h2.048v5.008h-21.503v-4.895
	L277.909,334.059z"/>
<path fill="#FFFFFF" stroke="#4C4C4C" stroke-miterlimit="10" d="M316.349,334.059v-2.047c0,0,4.208,0.113,5.119-10.922h-3.413
	v-3.756h2.046c0,0-3.368-10.58,5.312-10.58c8.684,0,5.384,10.58,5.384,10.58h2.277v3.068h-3.528c0,0-1.024,6.262,4.551,11.49v2.162
	h2.049v5.008h-21.505v-4.895L316.349,334.059z"/>
<path fill="#FFFFFF" d="M354.406,334.059v-2.047c0,0,4.21,0.113,5.119-10.922h-3.412v-3.756h2.048c0,0-3.37-10.58,5.312-10.58
	c8.682,0,5.382,10.58,5.382,10.58h2.276v3.068h-3.527c0,0-1.024,6.262,4.551,11.49v2.162h2.047v5.008h-21.503v-4.895
	L354.406,334.059z"/>
<path fill="#FFFFFF" d="M431.092,334.059v-2.047c0,0,4.21,0.113,5.12-10.922h-3.413v-3.756h2.047c0,0-3.37-10.58,5.312-10.58
	c8.686,0,5.383,10.58,5.383,10.58h2.275v3.068h-3.527c0,0-1.021,6.262,4.555,11.49v2.162h2.047v5.008h-21.503v-4.895
	L431.092,334.059z"/>
<path fill="#FFFFFF" stroke="#4C4C4C" stroke-miterlimit="10" d="M469.343,334.059v-2.047c0,0,4.209,0.113,5.12-10.922h-3.416
	v-3.756h2.05c0,0-3.37-10.58,5.312-10.58c8.685,0,5.383,10.58,5.383,10.58h2.275v3.068h-3.527c0,0-1.021,6.262,4.554,11.49v2.162
	h2.047v5.008h-21.503v-4.895L469.343,334.059z"/>
<path fill="#FFFFFF" d="M507.59,334.059v-2.047c0,0,4.211,0.113,5.118-10.922h-3.411v-3.756h2.048c0,0-3.37-10.58,5.312-10.58
	c8.684,0,5.382,10.58,5.382,10.58h2.276v3.068h-3.527c0,0-1.021,6.262,4.553,11.49v2.162h2.049v5.008h-21.503v-4.895L507.59,334.059
	z"/>
<path fill="#FFFFFF" stroke="#4C4C4C" stroke-miterlimit="10" d="M392.844,334.059v-2.047c0,0,4.208,0.113,5.119-10.922h-3.413
	v-3.756h2.048c0,0-3.37-10.58,5.312-10.58c8.682,0,5.383,10.58,5.383,10.58h2.275v3.068h-3.527c0,0-1.024,6.262,4.551,11.49v2.162
	h2.048v5.008h-21.502v-4.895L392.844,334.059z"/>
<path fill="#1B1B1B" d="M278.099,120.516v2.047c0,0,4.209-0.113,5.12,10.922h-3.413v3.755h2.048c0,0-3.37,10.581,5.312,10.581
	s5.383-10.581,5.383-10.581h2.275v-3.071h-3.527c0,0-1.024-6.257,4.552-11.492v-2.162h2.048v-5.006h-21.503v4.893L278.099,120.516z"
	/>
<path fill="#1B1B1B" d="M316.349,120.516v2.047c0,0,4.208-0.113,5.119,10.922h-3.413v3.755h2.046c0,0-3.368,10.581,5.312,10.581
	c8.684,0,5.384-10.581,5.384-10.581h2.277v-3.071h-3.528c0,0-1.024-6.257,4.551-11.492v-2.162h2.049v-5.006h-21.505v4.893
	L316.349,120.516z"/>
<path fill="#1B1B1B" d="M354.406,120.516v2.047c0,0,4.21-0.113,5.119,10.922h-3.412v3.755h2.048c0,0-3.37,10.581,5.312,10.581
	c8.682,0,5.382-10.581,5.382-10.581h2.276v-3.071h-3.527c0,0-1.024-6.257,4.551-11.492v-2.162h2.047v-5.006h-21.503v4.893
	L354.406,120.516z"/>
<path fill="#1B1B1B" d="M392.655,120.516v2.047c0,0,4.209-0.113,5.119,10.922h-3.413v3.755h2.048c0,0-3.369,10.581,5.312,10.581
	c8.682,0,5.383-10.581,5.383-10.581h2.276v-3.071h-3.528c0,0-1.024-6.257,4.551-11.492v-2.162h2.049v-5.006h-21.503v4.893
	L392.655,120.516z"/>
<path fill="#1B1B1B" d="M431.092,120.516v2.047c0,0,4.21-0.113,5.12,10.922h-3.413v3.755h2.047c0,0-3.37,10.581,5.312,10.581
	c8.686,0,5.383-10.581,5.383-10.581h2.275v-3.071h-3.525c0,0-1.023-6.257,4.553-11.492v-2.162h2.047v-5.006h-21.503v4.893
	L431.092,120.516z"/>
<path fill="#1B1B1B" d="M469.151,120.516v2.047c0,0,4.21-0.113,5.12,10.922h-3.413v3.755h2.048c0,0-3.371,10.581,5.312,10.581
	c8.683,0,5.383-10.581,5.383-10.581h2.273v-3.071h-3.524c0,0-1.024-6.257,4.55-11.492v-2.162h2.047v-5.006h-21.503v4.893
	L469.151,120.516z"/>
<path fill="#1B1B1B" d="M507.59,120.516v2.047c0,0,4.211-0.113,5.118,10.922h-3.411v3.755h2.048c0,0-3.37,10.581,5.312,10.581
	c8.684,0,5.382-10.581,5.382-10.581h2.276v-3.071h-3.527c0,0-1.021-6.257,4.553-11.492v-2.162h2.049v-5.006h-21.503v4.893
	L507.59,120.516z"/>
<polygon points="236.571,79.114 236.571,81.81 238.33,81.81 238.33,85.328 241.555,88.552 241.555,99.866 238.185,103.236 
	238.185,107.721 242.083,107.721 242.083,105.376 246.068,105.376 246.068,107.721 251.228,107.721 251.228,105.611 
	255.212,105.611 255.212,107.721 259.669,107.721 259.669,102.563 256.443,99.339 256.443,88.494 259.229,85.708 259.229,81.928 
	260.84,81.928 260.84,79.114 "/>
<polygon points="504.312,79.114 504.312,81.81 506.07,81.81 506.07,85.328 509.295,88.552 509.295,99.866 505.925,103.236 
	505.925,107.721 509.822,107.721 509.822,105.376 513.808,105.376 513.808,107.721 518.968,107.721 518.968,105.611 
	522.954,105.611 522.954,107.721 527.409,107.721 527.409,102.563 524.185,99.339 524.185,88.494 526.97,85.708 526.97,81.928 
	528.581,81.928 528.581,79.114 "/>
<path d="M292.056,77.119h-12.294c0,0-3.328-1.182,7.202,12.056v4.239c0,0,2.254,1.909,2.019,4.391c0,0-0.591-4.373-6.975-6.62
	c0,0-4.254-2.6-5.673-6.619c-1.417-4.02-3.663,0.209-0.59,2.882c0,0-0.828-5.392-4.965,0c0,0-1.301,2.319,3.544,9.883
	c0,0,0.12,4.61,3.547,7.329l-0.354,5.083l4.611-2.72l2.953,2.72l1.884-3.783c0,0,17.976,2.192,16.202-28.87L292.056,77.119z"/>
<path d="M483.298,77.119h-12.294c0,0-3.327-1.182,7.199,12.056v4.239c0,0,2.254,1.909,2.021,4.391c0,0-0.59-4.373-6.976-6.62
	c0,0-4.255-2.6-5.673-6.619c-1.419-4.02-3.665,0.209-0.593,2.882c0,0-0.827-5.392-4.964,0c0,0-1.3,2.319,3.546,9.883
	c0,0,0.118,4.61,3.546,7.329l-0.354,5.083l4.606-2.72l2.956,2.72l1.882-3.783c0,0,17.979,2.192,16.202-28.87L483.298,77.119z"/>
<path d="M310.815,110.809l-2.302-2.559c0,0,3.453-2.687,6.011-2.558c2.558,0.127,3.453,0.631,6.395-0.005
	c2.941-0.634,2.302-0.379,2.302-2.169c0,0-5.499-0.895-5.116-2.046l1.023-4.988c0,0-3.231-1.151-3.231-5.755
	c0-4.605,9.32-10.233,9.32-10.233s-2.124,0.055-2.124-2.558c0-2.612-0.103-1.79,2.124-1.79c2.224,0,2.566,1.407,2.566,1.407
	s-0.107,3.436-2.004,2.941c0,0,15.604,8.825,5.755,16.244l0.767,4.477l-5.883,2.557c0,0,2.497,2.814,9.464,2.174
	c0,0,6.011,1.025,6.011,2.558l-2.173,2.304C339.72,110.809,325.268,106.589,310.815,110.809z"/>
<path d="M425.75,110.81l-2.301-2.56c0,0,3.453-2.687,6.01-2.558c2.558,0.128,3.454,0.631,6.394-0.004
	c2.943-0.636,2.303-0.379,2.303-2.17c0,0-5.499-0.895-5.116-2.046l1.023-4.988c0,0-3.231-1.151-3.231-5.755s9.32-10.233,9.32-10.233
	s-2.124,0.055-2.124-2.558c0-2.612-0.102-1.79,2.124-1.79c2.226,0,2.567,1.407,2.567,1.407s-0.107,3.436-2.005,2.941
	c0,0,15.604,8.825,5.755,16.244l0.768,4.477l-5.883,2.558c0,0,2.497,2.813,9.465,2.174c0,0,6.011,1.023,6.011,2.558l-2.174,2.303
	C454.655,110.81,440.202,106.589,425.75,110.81z"/>
<path d="M401.856,111.644c0,0-7.584,0.842-12.523-2.732c0,0,0.946-9.456-2.626-11.453c0,0-4.939-5.148-1.892-9.246
	c3.047-4.098,8.024-1.262,8.024-1.262s9.017,3.888,9.017,10.507l-3.486-11.463c0,0,0.525-3.562,2.837-4.823v-3.048h-2.732v-1.26
	h2.838v-1.786h1.365v1.786h2.207v1.471h-2.311v2.943c0,0,6.131,2.73-0.717,16.917c0,0,4.604-16.707,16.477-10.719
	c0,0,4.939,4.624-2.416,11.454c0,0-3.258,6.726-1.472,10.297C414.446,109.228,404.711,112.38,401.856,111.644z"/>
<polygon fill="#FFFFFF" points="236.571,375.461 236.571,372.764 238.33,372.764 238.33,369.248 241.555,366.023 241.555,354.709 
	238.185,351.338 238.185,346.854 242.083,346.854 242.083,349.199 246.068,349.199 246.068,346.854 251.228,346.854 
	251.228,348.963 255.212,348.963 255.212,346.854 259.669,346.854 259.669,352.012 256.443,355.236 256.443,366.082 
	259.229,368.865 259.229,372.646 260.84,372.646 260.84,375.461 "/>
<polygon fill="#FFFFFF" stroke="#4C4C4C" stroke-miterlimit="10" points="504.312,375.461 504.312,372.764 506.07,372.764 
	506.07,369.248 509.295,366.023 509.295,354.709 505.925,351.338 505.925,346.854 509.822,346.854 509.822,349.199 513.808,349.199 
	513.808,346.854 518.968,346.854 518.968,348.963 522.954,348.963 522.954,346.854 527.409,346.854 527.409,352.012 
	524.185,355.236 524.185,366.082 526.97,368.865 526.97,372.646 528.581,372.646 528.581,375.461 "/>
<path fill="#FFFFFF" stroke="#4C4C4C" stroke-miterlimit="10" d="M292.056,377.457h-12.294c0,0-3.328,1.182,7.202-12.062v-4.234
	c0,0,2.254-1.908,2.019-4.393c0,0-0.591,4.373-6.975,6.619c0,0-4.254,2.6-5.673,6.619c-1.417,4.02-3.663-0.209-0.59-2.881
	c0,0-0.828,5.391-4.965,0c0,0-1.301-2.32,3.544-9.887c0,0,0.12-4.607,3.547-7.326l-0.354-5.082l4.611,2.717l2.953-2.717l1.884,3.777
	c0,0,17.976-2.188,16.202,28.871L292.056,377.457z"/>
<path fill="#FFFFFF" d="M483.298,377.457h-12.294c0,0-3.327,1.182,7.199-12.062v-4.234c0,0,2.254-1.908,2.021-4.393
	c0,0-0.59,4.373-6.976,6.619c0,0-4.255,2.6-5.673,6.619c-1.419,4.02-3.665-0.209-0.593-2.881c0,0-0.827,5.391-4.964,0
	c0,0-1.3-2.32,3.546-9.887c0,0,0.118-4.607,3.546-7.326l-0.354-5.082l4.606,2.717l2.956-2.717l1.882,3.777
	c0,0,17.979-2.188,16.202,28.871L483.298,377.457z"/>
<path fill="#FFFFFF" d="M310.815,378.549l-2.302-2.561c0,0,3.453-2.686,6.011-2.559c2.558,0.129,3.453,0.631,6.395-0.004
	c2.941-0.635,2.302-0.379,2.302-2.17c0,0-5.499-0.896-5.116-2.047l1.023-4.988c0,0-3.231-1.152-3.231-5.756s9.32-10.23,9.32-10.23
	s-2.124,0.057-2.124-2.559s-0.103-1.789,2.124-1.789c2.224,0,2.566,1.406,2.566,1.406s-0.107,3.436-2.004,2.938
	c0,0,15.604,8.826,5.755,16.244l0.767,4.479l-5.883,2.559c0,0,2.497,2.811,9.464,2.174c0,0,6.011,1.023,6.011,2.561l-2.173,2.303
	C339.72,378.549,325.268,374.328,310.815,378.549z"/>
<path fill="#FFFFFF" stroke="#4C4C4C" stroke-miterlimit="10" d="M425.75,378.549l-2.301-2.561c0,0,3.453-2.686,6.01-2.559
	c2.558,0.129,3.454,0.631,6.394-0.004c2.943-0.635,2.303-0.379,2.303-2.17c0,0-5.499-0.896-5.116-2.047l1.023-4.988
	c0,0-3.231-1.15-3.231-5.756s9.32-10.23,9.32-10.23s-2.124,0.057-2.124-2.559s-0.102-1.789,2.124-1.789
	c2.226,0,2.567,1.406,2.567,1.406s-0.107,3.436-2.005,2.938c0,0,15.604,8.826,5.755,16.244l0.768,4.479l-5.883,2.559
	c0,0,2.497,2.811,9.465,2.174c0,0,6.011,1.023,6.011,2.561l-2.174,2.303C454.655,378.549,440.202,374.328,425.75,378.549z"/>
<path fill="#FFFFFF" d="M401.856,379.387c0,0-7.584,0.84-12.523-2.734c0,0,0.946-9.457-2.626-11.449c0,0-4.939-5.148-1.892-9.248
	s8.024-1.262,8.024-1.262s9.017,3.889,9.017,10.508l-3.486-11.465c0,0,0.525-3.562,2.837-4.82v-3.049h-2.732v-1.262h2.838v-1.787
	h1.365v1.787h2.207v1.473h-2.311v2.941c0,0,6.131,2.73-0.717,16.916c0,0,4.604-16.707,16.477-10.717c0,0,4.939,4.623-2.416,11.453
	c0,0-3.258,6.723-1.472,10.297C414.446,376.969,404.711,380.119,401.856,379.387z"/>
<path d="M363.568,110.971c0,0-10.557-0.577-11.204-2.016l1.513-3.816l-4.68-7.128l-1.081-12.022l5.833,10.943l1.368-13.679
	l5.255,13.175l2.996-14.254l2.906,13.608l5.256-12.528l1.583,13.319l5.473-10.438l-1.008,12.238l-4.607,7.056l1.511,3.455
	C374.683,108.882,368.864,111.431,363.568,110.971z"/>
<circle cx="348.117" cy="84.729" r="1.764"/>
<circle fill="#FFFFFF" cx="348.117" cy="84.729" r="1.043"/>
<circle cx="355.151" cy="81.92" r="1.764"/>
<path fill="#FFFFFF" d="M356.194,81.92c0,0.578-0.468,1.045-1.044,1.045s-1.043-0.467-1.043-1.045c0-0.574,0.467-1.042,1.043-1.042
	S356.194,81.346,356.194,81.92z"/>
<circle cx="363.451" cy="80.878" r="1.763"/>
<circle fill="#FFFFFF" cx="363.451" cy="80.878" r="1.044"/>
<circle cx="371.89" cy="81.92" r="1.764"/>
<path fill="#FFFFFF" d="M372.934,81.92c0,0.578-0.468,1.045-1.044,1.045c-0.576,0-1.044-0.467-1.044-1.045
	c0-0.574,0.468-1.042,1.044-1.042C372.465,80.878,372.934,81.346,372.934,81.92z"/>
<circle cx="378.786" cy="84.729" r="1.764"/>
<circle fill="#FFFFFF" cx="378.785" cy="84.729" r="1.045"/>
<path fill="#FFFFFF" stroke="#4C4C4C" stroke-miterlimit="10" d="M363.574,377.955c0,0-11.15-0.607-11.835-2.129l1.597-4.029
	l-4.942-7.531l-1.141-12.699l6.16,11.561l1.445-14.449l5.553,13.918l3.164-15.059l3.072,14.373l5.552-13.232l1.674,14.07
	l5.779-11.029l-1.064,12.93l-4.868,7.453l1.597,3.648C375.315,375.748,369.169,378.443,363.574,377.955z"/>
<circle fill="#FFFFFF" cx="347.252" cy="350.234" r="1.863"/>
<circle fill="#FFFFFF" cx="347.253" cy="350.234" r="1.104"/>
<circle fill="#FFFFFF" cx="354.683" cy="347.268" r="1.863"/>
<circle fill="#FFFFFF" cx="354.683" cy="347.268" r="1.104"/>
<circle fill="#FFFFFF" cx="363.451" cy="346.164" r="1.863"/>
<circle fill="#FFFFFF" cx="363.451" cy="346.164" r="1.102"/>
<circle fill="#FFFFFF" cx="372.365" cy="347.268" r="1.863"/>
<circle fill="#FFFFFF" cx="372.364" cy="347.268" r="1.104"/>
<circle fill="#FFFFFF" cx="379.651" cy="350.234" r="1.863"/>
<circle fill="#FFFFFF" cx="379.651" cy="350.234" r="1.104"/>
<polygon fill="#D1D3D4" points="595.92,379.602 601.831,355.113 676.984,355.113 711.605,355.113 719.205,379.602 "/>
<polyline fill="#6D6E71" points="676.984,342.447 637.297,342.447 637.297,355.113 676.984,355.113 "/>
<g>
	
		<image overflow="visible" opacity="0.25" width="340" height="243" xlink:href="25CA7324565D304B.png"  transform="matrix(1 0 0 1 482.3574 120.4282)">
	</image>
	<g>
		<polygon fill="#D1D3D4" points="637.297,342.447 503.034,342.447 503.034,131.343 812.09,131.343 812.09,342.447 		"/>
	</g>
</g>
<rect x="521.611" y="144.854" fill="#8BC389" width="65.021" height="11.822"/>
<rect x="554.121" y="167.654" fill="#09B8E9" width="13.936" height="50.665"/>
<rect x="534.277" y="250.406" fill="#335629" width="61.643" height="17.734"/>
<rect x="606.053" y="218.318" fill="#8CC867" width="75.15" height="12.666"/>
<rect x="657.142" y="279.959" fill="#7AC144" width="121.172" height="10.978"/>
<rect x="730.182" y="160.898" fill="#8AD4E7" width="14.354" height="107.242"/>
<rect x="606.053" y="167.654" fill="#F15A26" width="111.675" height="13.511"/>
<rect x="526.679" y="290.937" fill="#8ED5E0" width="110.618" height="12.665"/>
<rect x="758.892" y="199.741" fill="#B3D78B" width="36.311" height="18.577"/>
<rect x="669.384" y="144.854" fill="#8ED3D3" width="38.845" height="11.822"/>
<rect x="688.806" y="306.98" fill="#DDE56C" width="70.086" height="5.066"/>
<path fill="#808285" d="M894.74,390.834c0,0-38.771,2.887-52.383-17.322c0,0-3.301-72.592,6.188-88.265l1.648-7.836l-10.727-1.651
	c0,0,28.047-20.622,86.615-9.073c0,0,39.596-0.413,42.068,3.3c2.477,3.711,26.812,50.316,22.271,100.639l-48.669,2.061
	C941.759,372.686,944.646,388.359,894.74,390.834z M973.105,356.602c0,0,6.602-25.57-12.783-73.417h-17.326
	c0,0,10.508,53.313,4.124,73.417H973.105z"/>
<ellipse fill="#424142" cx="891.771" cy="325.666" rx="49.575" ry="12.787"/>
<g>
	
		<image overflow="visible" opacity="0.25" width="138" height="96" xlink:href="25CA7324565D304D.png"  transform="matrix(1 0 0 1 821.3574 315.4277)">
	</image>
	<g>
		<path d="M842.195,359.486v-33.818c0,0,14.453,12.787,49.572,12.787c37.614,0,38.751-2.924,57.023-11.377l-4.023,47.996
			c0,0,0.951,12.658-52.175,15.857c-53.125,3.199-50.235-17.422-50.235-17.422"/>
	</g>
</g>
<path fill="#B0D9E0" d="M850.195,277.41l92.801,5.775l5.798,43.891l-106.599-1.41C842.195,325.666,843.598,286.795,850.195,277.41z"
	/>
<g>
	
		<image overflow="visible" opacity="0.25" width="76" height="123" xlink:href="25CA7324565D304E.png"  transform="matrix(1 0 0 1 736.3574 283.4282)">
	</image>
	<g>
		<path fill="#A7A7A8" d="M802.178,389.131c0,0.902-0.481,1.637-1.076,1.637h-42.844c-0.595,0-1.077-0.73-1.077-1.637v-88.156
			c0-0.904,0.482-1.637,1.077-1.637h42.844c0.595,0,1.076,0.732,1.076,1.637V389.131z"/>
	</g>
</g>
<path fill="#A7A7A8" d="M801.252,387.436c0,0.869-0.464,1.574-1.035,1.574h-41.198c-0.567,0-1.034-0.705-1.034-1.574V302.67
	c0-0.871,0.467-1.576,1.034-1.576h41.198c0.571,0,1.035,0.707,1.035,1.576V387.436z"/>
<circle fill="#B2B1B1" cx="779.68" cy="381.433" r="5.983"/>
<rect x="762.53" y="309.389" fill="#AAD488" width="2.678" height="35.662"/>
<rect x="772.599" y="310.348" fill="#EFED82" width="23.758" height="4.547"/>
<rect x="774.802" y="323.75" fill="#FBB36B" width="4.815" height="17.951"/>
<rect x="780.309" y="352.232" fill="#F5EF82" width="18.565" height="4.066"/>
<rect x="767.565" y="356.301" fill="#059447" width="4.404" height="13.404"/>
<rect x="790.378" y="327.221" fill="#94D8EC" width="5.979" height="10.412"/>
<rect x="787.703" y="364.199" fill="#74CFEC" width="4.72" height="3.59"/>
</svg>
