<?xml version="1.0" encoding="utf-8"?>
<!-- Generator: Adobe Illustrator 16.0.0, SVG Export Plug-In . SVG Version: 6.00 Build 0)  -->
<!DOCTYPE svg PUBLIC "-//W3C//DTD SVG 1.1//EN" "http://www.w3.org/Graphics/SVG/1.1/DTD/svg11.dtd">
<svg version="1.1" id="Layer_1" xmlns="http://www.w3.org/2000/svg" xmlns:xlink="http://www.w3.org/1999/xlink" x="0px" y="0px"
	 width="800px" height="532px" viewBox="0 0 800 532" enable-background="new 0 0 800 532" xml:space="preserve">
<path fill="#FFFFFF" d="M284.36,41.252c5.482,3.725,6.908,11.188,3.184,16.67L168.448,233.247
	c-3.725,5.48-11.187,6.906-16.669,3.182l-24.48-16.629c-5.482-3.723-6.908-11.188-3.184-16.67L243.209,27.807
	c3.725-5.482,11.188-6.908,16.67-3.184L284.36,41.252z"/>
<path fill="#FFFFFF" d="M49.988,142.151c2.773-6.018,8.418-9.334,12.607-7.402l117.019,53.939c4.189,1.932,5.335,8.375,2.562,14.395
	l-12.662,27.471c-2.774,6.018-8.419,9.332-12.608,7.4L39.886,184.014c-4.189-1.932-5.335-8.375-2.561-14.393L49.988,142.151z"/>
<rect fill="#113456" width="800" height="532"/>
<path fill="#FFFFFF" d="M580.331,126.288c7.656,5.202,9.647,15.623,4.446,23.279L418.463,394.402
	c-5.201,7.654-15.622,9.645-23.278,4.443l-34.186-23.223c-7.656-5.197-9.647-15.623-4.446-23.279l166.313-244.832
	c5.201-7.656,15.623-9.647,23.278-4.446L580.331,126.288z"/>
<path fill="#FFFFFF" d="M250.422,267.191c3.873-8.405,11.755-13.036,17.606-10.338l163.413,75.325
	c5.851,2.697,7.45,11.695,3.577,20.102l-17.682,38.361c-3.875,8.404-11.757,13.033-17.607,10.334L236.315,325.65
	c-5.85-2.697-7.45-11.695-3.576-20.098L250.422,267.191z"/>
</svg>
