<?xml version="1.0" encoding="utf-8"?>
<!-- Generator: Adobe Illustrator 16.0.0, SVG Export Plug-In . SVG Version: 6.00 Build 0)  -->
<!DOCTYPE svg PUBLIC "-//W3C//DTD SVG 1.1//EN" "http://www.w3.org/Graphics/SVG/1.1/DTD/svg11.dtd">
<svg version="1.1" id="Layer_1" xmlns="http://www.w3.org/2000/svg" xmlns:xlink="http://www.w3.org/1999/xlink" x="0px" y="0px"
	 width="800px" height="532px" viewBox="0 0 800 532" enable-background="new 0 0 800 532" xml:space="preserve">
<path fill="#FFFFFF" d="M681.369,266.483c5.482,3.724,6.908,11.187,3.184,16.669L565.457,458.477
	c-3.725,5.48-11.188,6.906-16.67,3.182l-24.48-16.629c-5.48-3.723-6.908-11.188-3.184-16.67l119.096-175.323
	c3.725-5.482,11.188-6.907,16.67-3.184L681.369,266.483z"/>
<path fill="#FFFFFF" d="M446.997,367.381c2.774-6.018,8.419-9.334,12.607-7.402l117.019,53.939
	c4.189,1.932,5.335,8.375,2.562,14.395l-12.662,27.471c-2.774,6.018-8.419,9.332-12.608,7.4l-117.019-53.939
	c-4.188-1.932-5.335-8.375-2.561-14.393L446.997,367.381z"/>
<rect fill="#113456" width="800" height="532"/>
<path fill="#FFFFFF" d="M755.308,292.973c5.482,3.725,6.908,11.188,3.184,16.67L639.396,484.967
	c-3.725,5.48-11.187,6.906-16.669,3.182l-24.48-16.629c-5.482-3.723-6.908-11.188-3.184-16.67l119.095-175.322
	c3.725-5.482,11.188-6.908,16.67-3.184L755.308,292.973z"/>
<path fill="#FFFFFF" d="M520.936,393.871c2.773-6.018,8.418-9.334,12.607-7.402l117.019,53.939
	c4.189,1.932,5.335,8.375,2.562,14.395l-12.662,27.471c-2.774,6.018-8.419,9.332-12.608,7.4l-117.019-53.939
	c-4.189-1.932-5.335-8.375-2.561-14.393L520.936,393.871z"/>
<rect x="26.418" y="52.929" fill="none" width="713.724" height="106.536"/>
<text transform="matrix(1 0 0 1 36.4141 87.0083)"><tspan x="0" y="0" fill="#FFFFFF" font-family="'MyriadPro-Regular'" font-size="48">Journal about the fun parts of your     </tspan><tspan x="269.252" y="57.6" fill="#FFFFFF" font-family="'MyriadPro-Regular'" font-size="48">session.</tspan></text>
<rect x="26.418" y="212.639" fill="none" width="440.523" height="339.215"/>
<text transform="matrix(1 0 0 1 26.4185 246.7183)"><tspan x="0" y="0" fill="#FFFFFF" font-family="'MyriadPro-Regular'" font-size="48">ShredJournal</tspan><tspan x="0" y="57.6" fill="#FFFFFF" font-family="'MyriadPro-Regular'" font-size="48">automatically records </tspan><tspan x="0" y="115.2" fill="#FFFFFF" font-family="'MyriadPro-Regular'" font-size="48">the complicated </tspan><tspan x="0" y="172.799" fill="#FFFFFF" font-family="'MyriadPro-Regular'" font-size="48">weather conditions </tspan><tspan x="0" y="230.401" fill="#FFFFFF" font-family="'MyriadPro-Regular'" font-size="48">for you.</tspan></text>
</svg>
