<?xml version="1.0" encoding="utf-8"?>
<!-- Generator: Adobe Illustrator 16.0.0, SVG Export Plug-In . SVG Version: 6.00 Build 0)  -->
<!DOCTYPE svg PUBLIC "-//W3C//DTD SVG 1.1//EN" "http://www.w3.org/Graphics/SVG/1.1/DTD/svg11.dtd">
<svg version="1.1" id="Layer_1" xmlns="http://www.w3.org/2000/svg" xmlns:xlink="http://www.w3.org/1999/xlink" x="0px" y="0px"
	 width="1000px" height="1000px" viewBox="0 0 1000 1000" enable-background="new 0 0 1000 1000" xml:space="preserve">
<polygon fill="#8CC96E" stroke="#000000" stroke-miterlimit="10" points="123.324,158.269 123.324,189.809 129.828,189.809 
	129.828,174.039 154.53,189.578 159.932,186.18 134.862,170.41 155.107,157.675 143.044,157.675 129.355,166.286 129.355,157.675 
	"/>
<path fill="#FFDCAE" stroke="#000000" stroke-miterlimit="10" d="M173.464,164.339v19.795c0,0-0.419,5.674-7.133,5.674
	s-9.44-9.105-9.44-9.105h5.245c0,0-0.21,5.279,4.196,5.279c4.405,0,2.016-21.643,2.016-21.643h-11.457v-4.355h56.433v4.355H173.464z
	"/>
<polygon fill="#83D3ED" points="195.113,159.984 196.091,164.339 193.616,164.339 192.503,159.984 "/>
<polygon fill="#FFFFFF" stroke="#000000" stroke-miterlimit="10" points="185.684,159.984 184.57,164.339 182.095,164.339 
	183.073,159.984 "/>
<polygon fill="#FFFFFF" points="183.467,158.711 182.896,160.775 185.424,160.775 185.684,158.711 "/>
<polygon fill="#FFFFFF" points="184.729,162.96 182.405,162.96 181.875,165.744 184.336,165.744 "/>
<ellipse fill="none" stroke="#000000" stroke-miterlimit="10" cx="189.093" cy="174.171" rx="5.35" ry="18.409"/>
<ellipse fill="none" stroke="#000000" stroke-miterlimit="10" cx="189.093" cy="174.171" rx="5.35" ry="18.409"/>
<ellipse fill="none" stroke="#000000" stroke-miterlimit="10" cx="189.093" cy="174.303" rx="7.803" ry="22.5"/>
<path fill="#FFFFFF" stroke="#000000" stroke-miterlimit="10" d="M196.091,164.339"/>
<polyline fill="#FFDCAE" stroke="#000000" stroke-miterlimit="10" points="192.503,159.985 195.113,159.985 196.091,164.339 
	193.616,164.338 "/>
<path fill="#00AEEF" stroke="#000000" stroke-miterlimit="10" d="M195.113,159.985"/>
<g>
	<g>
		<path fill="#FFDCAE" d="M192.69,163.09c0.065-0.227,0.147-0.446,0.229-0.667c0.1-0.269,0.065-0.369,0.251-0.101
			c0.186,0.268-0.021,0.326-0.11,0.587c-0.009,0.027,0.032,0.044,0.045,0.02c0.187-0.353,0.274-0.711,0.169-1.103
			c-0.008-0.031-0.056-0.018-0.048,0.014c0.064,0.242,0.089,0.735-0.056,0.962c0.064-0.101,0.148-0.182,0.188-0.296
			c0.021-0.063-0.26-0.386-0.329-0.451c-0.011-0.01-0.025-0.009-0.036,0c-0.051,0.044-0.047,0.125-0.065,0.187
			c-0.082,0.282-0.205,0.551-0.286,0.833C192.633,163.108,192.682,163.121,192.69,163.09L192.69,163.09z"/>
	</g>
</g>
<g>
	<g>
		<path fill="#FFDCAE" d="M193.566,162.925c-0.18-0.064-0.352-0.14-0.524-0.225c0.042,0.072,0.083,0.144,0.124,0.216
			c0.015-0.132,0.072-0.241,0.177-0.323c0.19-0.15,0.012-0.409-0.177-0.427c-0.284-0.027-0.548-0.14-0.833-0.167
			c0.059,0.142,0.118,0.285,0.177,0.427c0.259-0.238,0.549-0.407,0.906-0.427c-0.072-0.125-0.144-0.251-0.216-0.376
			c-0.175,0.322-0.411,0.513-0.743,0.66c0.114,0.114,0.228,0.228,0.342,0.342c0.345-0.499,0.284-0.989,0-1.502
			c-0.092-0.166-0.338-0.159-0.432,0c-0.064,0.108-0.104,0.225-0.167,0.333c0.152,0.02,0.305,0.04,0.457,0.06
			c-0.044-0.286-0.004-0.516,0.083-0.784c0.101-0.307-0.382-0.438-0.482-0.133c-0.118,0.359-0.141,0.677-0.083,1.05
			c0.035,0.224,0.356,0.23,0.457,0.06c0.064-0.108,0.104-0.225,0.167-0.333c-0.144,0-0.288,0-0.432,0
			c0.199,0.359,0.245,0.643,0,0.998c-0.159,0.229,0.138,0.432,0.342,0.342c0.41-0.181,0.709-0.446,0.923-0.84
			c0.086-0.158-0.019-0.387-0.216-0.376c-0.494,0.027-0.9,0.242-1.26,0.573c-0.174,0.161-0.025,0.408,0.177,0.427
			c0.284,0.027,0.548,0.14,0.833,0.167c-0.059-0.142-0.118-0.285-0.177-0.427c-0.208,0.165-0.293,0.42-0.323,0.677
			c-0.009,0.08,0.053,0.181,0.124,0.216c0.21,0.104,0.422,0.196,0.643,0.275C193.738,163.517,193.868,163.034,193.566,162.925
			L193.566,162.925z"/>
	</g>
</g>
<g>
	<g>
		<path fill="#FFDCAE" d="M192.593,161.26c0.083-0.083,0.167-0.167,0.25-0.25c0.228-0.228-0.125-0.582-0.354-0.354
			c-0.083,0.083-0.167,0.167-0.25,0.25C192.012,161.135,192.365,161.488,192.593,161.26L192.593,161.26z"/>
	</g>
</g>
<g>
	<g>
		<path fill="#FFDCAE" d="M192.167,160.917c0.322,0,0.322-0.5,0-0.5S191.844,160.917,192.167,160.917L192.167,160.917z"/>
	</g>
</g>
<g>
	<g>
		<path fill="#FFDCAE" d="M192.833,163.583c0.139,0,0.278,0,0.417,0c0.322,0,0.322-0.5,0-0.5c-0.083,0-0.167,0-0.25,0
			c-0.249,0-0.341,0.34-0.126,0.466c0.108,0.063,0.226,0.103,0.333,0.167c0.278,0.164,0.53-0.268,0.252-0.432
			c-0.108-0.064-0.225-0.103-0.333-0.167c-0.042,0.155-0.084,0.311-0.126,0.466c0.083,0,0.167,0,0.25,0c0.322,0,0.322-0.5,0-0.5
			c-0.139,0-0.278,0-0.417,0C192.511,163.083,192.511,163.583,192.833,163.583L192.833,163.583z"/>
	</g>
</g>
<g>
	<g>
		<path fill="#FFDCAE" d="M196.816,163.259c-0.6-0.153-1.2-0.175-1.816-0.175c0.022,0.164,0.044,0.327,0.066,0.491
			c0.703-0.168,1.466-0.245,2.06-0.692c0.155-0.117,0.176-0.409-0.06-0.457c-0.824-0.166-1.643-0.166-2.466,0
			c-0.28,0.057-0.212,0.497,0.066,0.491c0.502-0.01,0.99-0.092,1.483-0.175c0.279-0.047,0.213-0.508-0.066-0.491
			c-0.483,0.029-0.89,0.189-1.293,0.451c-0.187,0.121-0.147,0.386,0.06,0.457c0.491,0.168,0.976,0.168,1.466,0
			c0.308-0.106,0.183-0.537-0.133-0.482c-0.415,0.072-0.837,0.081-1.25,0.167c0.081,0.14,0.162,0.279,0.243,0.418
			c0.525-0.5,1.157-0.854,1.783-1.211c-0.084-0.144-0.168-0.288-0.252-0.432c-0.458,0.268-0.917,0.466-1.44,0.558
			c0.064,0.152,0.128,0.305,0.192,0.457c0.437-0.187,0.843-0.423,1.25-0.667c0.226-0.135,0.114-0.446-0.126-0.466
			c-0.627-0.052-1.159,0.177-1.709,0.451c-0.252,0.125-0.071,0.562,0.192,0.457c0.417-0.167,0.833-0.333,1.25-0.5
			c0.229-0.092,0.246-0.396,0-0.482c-0.216-0.075-0.423-0.09-0.65-0.092c0.022,0.164,0.044,0.327,0.066,0.491
			c0.174-0.028,0.332-0.092,0.477-0.192c0.191-0.132,0.14-0.477-0.126-0.466c-0.378,0.016-0.714,0.093-1.043,0.284
			c-0.212,0.123-0.125,0.473,0.126,0.466c0.457-0.013,0.876-0.097,1.293-0.284c0.192-0.086,0.147-0.422-0.06-0.457
			c-0.501-0.085-0.981-0.083-1.466,0.083c0.064,0.152,0.128,0.305,0.192,0.457c0.172-0.104,0.328-0.229,0.5-0.333
			c0.193-0.117,0.142-0.387-0.06-0.457c-0.242-0.083-0.478-0.09-0.733-0.092c0,0.167,0,0.333,0,0.5c0.526,0,1.045-0.016,1.566-0.092
			c0.242-0.036,0.238-0.443,0-0.482c-0.52-0.086-1.038-0.165-1.566-0.175c-0.323-0.006-0.322,0.494,0,0.5
			c0.484,0.01,0.957,0.079,1.434,0.158c0-0.161,0-0.322,0-0.482c-0.476,0.07-0.954,0.074-1.434,0.075c-0.322,0-0.322,0.498,0,0.5
			c0.208,0.001,0.402,0.006,0.6,0.074c-0.02-0.152-0.04-0.305-0.06-0.457c-0.172,0.104-0.328,0.229-0.5,0.333
			c-0.237,0.143-0.083,0.551,0.192,0.457c0.398-0.137,0.788-0.154,1.201-0.083c-0.02-0.152-0.04-0.305-0.06-0.457
			c-0.336,0.151-0.674,0.206-1.041,0.216c0.042,0.155,0.084,0.311,0.126,0.466c0.251-0.146,0.502-0.204,0.791-0.216
			c-0.042-0.155-0.084-0.311-0.126-0.466c-0.111,0.077-0.224,0.12-0.357,0.142c-0.286,0.046-0.207,0.489,0.066,0.491
			c0.181,0.001,0.345,0.014,0.517,0.074c0-0.161,0-0.322,0-0.482c-0.417,0.167-0.833,0.333-1.25,0.5
			c0.064,0.152,0.128,0.305,0.192,0.457c0.479-0.238,0.913-0.428,1.458-0.382c-0.042-0.155-0.084-0.311-0.126-0.466
			c-0.407,0.244-0.813,0.48-1.25,0.667c-0.279,0.119-0.065,0.502,0.192,0.457c0.565-0.1,1.067-0.32,1.56-0.608
			c0.278-0.163,0.028-0.592-0.252-0.432c-0.664,0.378-1.328,0.759-1.884,1.289c-0.191,0.182,0.009,0.467,0.243,0.418
			c0.412-0.086,0.835-0.095,1.25-0.167c-0.044-0.161-0.088-0.322-0.133-0.482c-0.409,0.141-0.792,0.14-1.201,0
			c0.02,0.152,0.04,0.305,0.06,0.457c0.326-0.211,0.647-0.358,1.041-0.382c-0.022-0.164-0.044-0.327-0.066-0.491
			c-0.45,0.076-0.894,0.148-1.351,0.158c0.022,0.164,0.044,0.327,0.066,0.491c0.735-0.148,1.466-0.148,2.201,0
			c-0.02-0.152-0.04-0.305-0.06-0.457c-0.558,0.42-1.28,0.484-1.94,0.642c-0.278,0.066-0.213,0.491,0.066,0.491
			c0.571,0,1.127,0.016,1.684,0.158C196.996,163.821,197.129,163.338,196.816,163.259L196.816,163.259z"/>
	</g>
</g>
<g>
	<g>
		<path fill="#FFDCAE" d="M195.833,160.5c-0.611,0-1.222,0-1.833,0c-0.322,0-0.322,0.5,0,0.5c0.611,0,1.222,0,1.833,0
			C196.156,161,196.156,160.5,195.833,160.5L195.833,160.5z"/>
	</g>
</g>
<g>
	<g>
		<path fill="#FFDCAE" d="M196.5,163.417c-1.201-0.018-2.457-0.366-3.65-0.158c-0.317,0.056-0.183,0.537,0.133,0.482
			c1.137-0.199,2.371,0.158,3.517,0.175C196.823,163.921,196.822,163.421,196.5,163.417L196.5,163.417z"/>
	</g>
</g>
</svg>
