<?xml version="1.0" encoding="utf-8"?>
<!-- Generator: Adobe Illustrator 16.0.0, SVG Export Plug-In . SVG Version: 6.00 Build 0)  -->
<!DOCTYPE svg PUBLIC "-//W3C//DTD SVG 1.1//EN" "http://www.w3.org/Graphics/SVG/1.1/DTD/svg11.dtd">
<svg version="1.1" id="Layer_1" xmlns="http://www.w3.org/2000/svg" xmlns:xlink="http://www.w3.org/1999/xlink" x="0px" y="0px"
	 width="180px" height="90px" viewBox="0 0 180 90" enable-background="new 0 0 180 90" xml:space="preserve">
<polygon fill="#8CC96E" stroke="#000000" stroke-miterlimit="10" points="2.75,14.321 2.75,74.671 15.193,74.671 15.193,44.496 
	62.461,74.228 72.797,67.728 24.827,37.552 63.567,13.182 40.483,13.182 14.29,29.661 14.29,13.182 "/>
<path fill="#FFDCAE" stroke="#000000" stroke-miterlimit="10" d="M98.689,25.936v37.88c0,0-0.801,10.855-13.648,10.855
	c-12.846,0-18.062-17.424-18.062-17.424h10.034c0,0-0.4,10.1,8.028,10.1c8.43,0,3.86-41.411,3.86-41.411H66.979v-8.333h107.984
	v8.333H98.689z"/>
<polygon fill="#83D3ED" points="140.117,17.603 141.986,25.936 137.252,25.936 135.123,17.603 "/>
<polygon fill="#FFFFFF" stroke="#000000" stroke-miterlimit="10" points="122.074,17.603 119.945,25.936 115.211,25.936 
	117.076,17.603 "/>
<polygon fill="#FFFFFF" points="117.834,15.167 116.74,19.117 121.578,19.117 122.074,15.167 "/>
<polygon fill="#FFFFFF" points="120.248,23.298 115.801,23.298 114.787,28.623 119.496,28.623 "/>
<path fill="none" stroke="#000000" stroke-miterlimit="10" d="M138.834,44.747c0,19.456-4.584,35.227-10.234,35.227
	c-5.654,0-10.24-15.771-10.24-35.227c0-19.453,4.586-35.224,10.24-35.224C134.25,9.523,138.834,25.294,138.834,44.747z"/>
<path fill="none" stroke="#000000" stroke-miterlimit="10" d="M138.834,44.747c0,19.456-4.584,35.227-10.234,35.227
	c-5.654,0-10.24-15.771-10.24-35.227c0-19.453,4.586-35.224,10.24-35.224C134.25,9.523,138.834,25.294,138.834,44.747z"/>
<path fill="none" stroke="#000000" stroke-miterlimit="10" d="M143.529,44.999c0,23.776-6.686,43.053-14.93,43.053
	c-8.246,0-14.936-19.277-14.936-43.053c0-23.776,6.689-43.051,14.936-43.051C136.844,1.948,143.529,21.222,143.529,44.999z"/>
<path fill="#FFFFFF" stroke="#000000" stroke-miterlimit="10" d="M141.986,25.934"/>
<polyline fill="#FFDCAE" stroke="#000000" stroke-miterlimit="10" points="135.123,17.605 140.117,17.605 141.986,25.934 
	137.252,25.934 "/>
<path fill="#00AEEF" stroke="#000000" stroke-miterlimit="10" d="M140.117,17.605"/>
<g>
	<g>
		<path fill="#FFDCAE" d="M135.459,23.54c0.129-0.475,0.312-0.93,0.479-1.392c0.029-0.082,0.158-0.513,0.176-0.497
			c0.104,0.093,0.18,0.233,0.258,0.348c0.125,0.177,0.367,0.377,0.234,0.594c-0.123,0.2-0.342,0.379-0.393,0.614
			c-0.006,0.027,0.031,0.045,0.045,0.02c0.357-0.643,0.533-1.371,0.32-2.092c-0.01-0.031-0.059-0.018-0.049,0.014
			c0.189,0.643,0.064,1.288-0.219,1.882c-0.084,0.177,0.184-0.199,0.219-0.246c0.064-0.086,0.174-0.201,0.197-0.31
			c0.031-0.142-0.465-0.85-0.641-0.899c-0.014-0.004-0.027,0.005-0.031,0.018c-0.223,0.636-0.467,1.283-0.645,1.933
			C135.402,23.557,135.451,23.57,135.459,23.54L135.459,23.54z"/>
	</g>
</g>
<g>
	<g>
		<path fill="#FFDCAE" d="M137.1,23.45c-0.586-0.21-1.299-0.413-0.529-1.017c0.191-0.15,0.012-0.409-0.178-0.427
			c-0.543-0.051-1.049-0.267-1.594-0.318c0.059,0.142,0.119,0.285,0.178,0.427c0.539-0.5,1.146-0.844,1.893-0.884
			c-0.072-0.125-0.145-0.251-0.217-0.376c-0.355,0.653-0.826,1.043-1.498,1.346c0.113,0.114,0.227,0.228,0.342,0.342
			c0.605-0.901,0.502-1.721,0-2.645c-0.092-0.167-0.34-0.158-0.432,0c-0.125,0.209-0.197,0.428-0.32,0.639
			c0.152,0.02,0.305,0.04,0.457,0.06c-0.092-0.589-0.021-1.069,0.158-1.621c0.102-0.307-0.383-0.438-0.482-0.133
			c-0.211,0.648-0.262,1.213-0.158,1.887c0.035,0.224,0.355,0.23,0.457,0.06c0.121-0.206,0.199-0.435,0.32-0.639
			c-0.145,0-0.289,0-0.432,0c0.414,0.761,0.498,1.399,0,2.141c-0.154,0.229,0.135,0.435,0.342,0.342
			c0.75-0.337,1.285-0.803,1.678-1.526c0.086-0.158-0.02-0.387-0.215-0.376c-0.881,0.048-1.607,0.439-2.246,1.031
			c-0.174,0.161-0.025,0.408,0.176,0.427c0.545,0.051,1.049,0.267,1.594,0.318c-0.059-0.142-0.117-0.285-0.176-0.427
			c-0.354,0.277-0.504,0.698-0.555,1.134c-0.008,0.08,0.053,0.181,0.125,0.216c0.387,0.19,0.773,0.357,1.18,0.503
			C137.27,24.042,137.4,23.559,137.1,23.45L137.1,23.45z"/>
	</g>
</g>
<g>
	<g>
		<path fill="#FFDCAE" d="M135.137,19.883c0.158-0.159,0.318-0.319,0.475-0.479c0.227-0.23-0.127-0.584-0.354-0.354
			c-0.156,0.161-0.316,0.32-0.475,0.479C134.555,19.758,134.908,20.111,135.137,19.883L135.137,19.883z"/>
	</g>
</g>
<g>
	<g>
		<path fill="#FFDCAE" d="M134.479,19.159c0.322,0,0.322-0.5,0-0.5S134.156,19.159,134.479,19.159L134.479,19.159z"/>
	</g>
</g>
<g>
	<g>
		<path fill="#FFDCAE" d="M135.756,24.261c0.266,0,0.531,0,0.797,0c0.322,0,0.322-0.5,0-0.5c-0.16,0-0.32,0-0.48,0
			c-0.266,0-0.318,0.327-0.127,0.466c0.199,0.144,0.447,0.173,0.643,0.318c0.26,0.192,0.508-0.242,0.252-0.432
			c-0.197-0.146-0.443-0.175-0.643-0.318c-0.041,0.155-0.084,0.311-0.125,0.466c0.16,0,0.32,0,0.48,0c0.322,0,0.322-0.5,0-0.5
			c-0.266,0-0.531,0-0.797,0C135.434,23.761,135.434,24.261,135.756,24.261L135.756,24.261z"/>
	</g>
</g>
<g>
	<g>
		<path fill="#FFDCAE" d="M143.32,24.088c-1.131-0.286-2.258-0.325-3.42-0.327c0.023,0.164,0.045,0.327,0.066,0.491
			c1.328-0.317,2.768-0.458,3.889-1.302c0.156-0.117,0.178-0.41-0.059-0.457c-1.537-0.309-3.066-0.309-4.604,0
			c-0.279,0.057-0.211,0.497,0.066,0.491c0.941-0.019,1.855-0.171,2.781-0.327c0.279-0.047,0.213-0.508-0.066-0.491
			c-0.885,0.053-1.621,0.354-2.359,0.831c-0.188,0.121-0.148,0.386,0.059,0.457c0.906,0.31,1.779,0.312,2.684,0
			c0.309-0.106,0.184-0.537-0.133-0.482c-0.793,0.138-1.602,0.154-2.391,0.319c0.082,0.14,0.162,0.279,0.244,0.418
			c1.02-0.971,2.242-1.661,3.457-2.353c-0.084-0.144-0.168-0.288-0.252-0.432c-0.889,0.521-1.791,0.911-2.809,1.09
			c0.064,0.152,0.127,0.305,0.191,0.457c0.836-0.356,1.613-0.81,2.393-1.276c0.225-0.135,0.113-0.446-0.127-0.466
			c-1.16-0.096-2.137,0.324-3.156,0.831c-0.252,0.125-0.072,0.562,0.191,0.457c0.797-0.318,1.596-0.636,2.391-0.956
			c0.229-0.092,0.246-0.396,0-0.482c-0.396-0.139-0.764-0.164-1.182-0.168c0.021,0.164,0.043,0.327,0.066,0.491
			c0.318-0.051,0.594-0.16,0.857-0.345c0.191-0.133,0.141-0.477-0.125-0.466c-0.686,0.029-1.283,0.167-1.879,0.513
			c-0.211,0.123-0.125,0.473,0.127,0.466c0.83-0.024,1.598-0.171,2.359-0.513c0.191-0.086,0.146-0.422-0.061-0.457
			c-0.922-0.156-1.797-0.146-2.688,0.16c0.064,0.152,0.129,0.305,0.193,0.457c0.33-0.199,0.627-0.439,0.957-0.639
			c0.193-0.117,0.143-0.387-0.061-0.457c-0.447-0.154-0.869-0.164-1.34-0.167c0,0.167,0,0.333,0,0.5
			c0.986-0.001,1.961-0.025,2.938-0.168c0.242-0.036,0.238-0.443,0-0.482c-0.977-0.163-1.945-0.309-2.938-0.329
			c-0.322-0.006-0.322,0.494,0,0.5c0.947,0.019,1.873,0.156,2.805,0.311c0-0.161,0-0.322,0-0.482
			c-0.932,0.137-1.863,0.15-2.805,0.151c-0.322,0-0.322,0.498,0,0.5c0.416,0.003,0.811,0.013,1.207,0.149
			c-0.02-0.152-0.039-0.305-0.059-0.457c-0.33,0.2-0.627,0.44-0.957,0.639c-0.238,0.143-0.082,0.551,0.191,0.457
			c0.803-0.276,1.59-0.302,2.422-0.16c-0.02-0.152-0.039-0.305-0.059-0.457c-0.684,0.306-1.361,0.423-2.107,0.444
			c0.041,0.155,0.084,0.311,0.125,0.466c0.516-0.299,1.035-0.419,1.627-0.444c-0.043-0.155-0.084-0.311-0.127-0.466
			c-0.227,0.158-0.465,0.25-0.738,0.294c-0.287,0.046-0.207,0.489,0.066,0.491c0.365,0.003,0.703,0.029,1.049,0.15
			c0-0.161,0-0.322,0-0.482c-0.795,0.32-1.594,0.638-2.391,0.956c0.064,0.152,0.129,0.305,0.193,0.457
			c0.951-0.472,1.82-0.852,2.904-0.763c-0.041-0.155-0.084-0.311-0.125-0.466c-0.779,0.466-1.557,0.919-2.393,1.276
			c-0.279,0.119-0.064,0.502,0.193,0.457c1.064-0.188,2.002-0.598,2.928-1.141c0.279-0.163,0.029-0.591-0.252-0.432
			c-1.254,0.713-2.508,1.43-3.559,2.431c-0.191,0.182,0.01,0.467,0.242,0.418c0.787-0.165,1.598-0.182,2.391-0.319
			c-0.043-0.161-0.088-0.322-0.133-0.482c-0.816,0.281-1.6,0.279-2.418,0c0.02,0.152,0.041,0.305,0.061,0.457
			c0.658-0.426,1.311-0.715,2.107-0.763c-0.023-0.164-0.045-0.327-0.066-0.491c-0.881,0.149-1.754,0.292-2.648,0.31
			c0.023,0.164,0.045,0.327,0.066,0.491c1.451-0.292,2.887-0.292,4.338,0c-0.02-0.152-0.041-0.305-0.061-0.457
			c-1.084,0.816-2.486,0.944-3.77,1.251c-0.277,0.066-0.213,0.491,0.066,0.491c1.113,0.001,2.201,0.034,3.287,0.309
			C143.5,24.649,143.633,24.167,143.32,24.088L143.32,24.088z"/>
	</g>
</g>
<g>
	<g>
		<path fill="#FFDCAE" d="M141.498,18.817c-1.17,0-2.34,0-3.512,0c-0.322,0-0.322,0.5,0,0.5c1.172,0,2.342,0,3.512,0
			C141.82,19.317,141.82,18.817,141.498,18.817L141.498,18.817z"/>
	</g>
</g>
<g>
	<g>
		<path fill="#FFDCAE" d="M142.771,24.397c-2.273-0.034-4.666-0.702-6.926-0.31c-0.316,0.055-0.182,0.537,0.133,0.482
			c2.203-0.383,4.574,0.294,6.793,0.327C143.094,24.902,143.094,24.402,142.771,24.397L142.771,24.397z"/>
	</g>
</g>
<g>
	<g>
		<path fill="#FFDCAE" d="M141.375,24.125c3.225,0,3.225-5,0-5S138.15,24.125,141.375,24.125L141.375,24.125z"/>
	</g>
</g>
<g>
	<g>
		<path fill="#FFDCAE" d="M135.75,23c0.968,0,0.968-1.5,0-1.5S134.782,23,135.75,23L135.75,23z"/>
	</g>
</g>
<g>
	<g>
		<path fill="#FFDCAE" d="M137.099,23.449c0.153-0.748,0.1-1.438-0.202-2.142c-0.275-0.644-0.701-1.216-0.923-1.882
			c-0.305-0.913-1.754-0.521-1.447,0.398c0.35,1.048,1.363,2.067,1.125,3.227C135.458,23.995,136.903,24.396,137.099,23.449
			L137.099,23.449z"/>
	</g>
</g>
<g>
	<g>
		<path fill="#FFDCAE" d="M136.875,25.25c0.968,0,0.968-1.5,0-1.5S135.907,25.25,136.875,25.25L136.875,25.25z"/>
	</g>
</g>
<g>
	<g>
		<path fill="#FFDCAE" d="M141.625,25.375c0.968,0,0.968-1.5,0-1.5S140.657,25.375,141.625,25.375L141.625,25.375z"/>
	</g>
</g>
<g>
	<g>
		<path fill="#FFDCAE" d="M142.25,25.375c0.968,0,0.968-1.5,0-1.5S141.282,25.375,142.25,25.375L142.25,25.375z"/>
	</g>
</g>
<g>
	<g>
		<path fill="#FFDCAE" d="M140.125,19.875c0.968,0,0.968-1.5,0-1.5S139.157,19.875,140.125,19.875L140.125,19.875z"/>
	</g>
</g>
<g>
	<g>
		<path fill="#FFDCAE" d="M141,19.75c0.968,0,0.968-1.5,0-1.5S140.032,19.75,141,19.75L141,19.75z"/>
	</g>
</g>
<g>
	<g>
		<path fill="#FFDCAE" d="M135.125,19.75c0.968,0,0.968-1.5,0-1.5S134.157,19.75,135.125,19.75L135.125,19.75z"/>
	</g>
</g>
<g>
	<g>
		<path fill="#FFDCAE" d="M135.312,18.562c0.322,0,0.322-0.5,0-0.5S134.99,18.562,135.312,18.562L135.312,18.562z"/>
	</g>
</g>
<g>
	<g>
		<path fill="#FFDCAE" d="M134.938,18.625c0.322,0,0.322-0.5,0-0.5S134.615,18.625,134.938,18.625L134.938,18.625z"/>
	</g>
</g>
<g>
	<g>
		<path fill="#FFDCAE" d="M134.969,18.625c0.322,0,0.322-0.5,0-0.5S134.646,18.625,134.969,18.625L134.969,18.625z"/>
	</g>
</g>
<g>
	<g>
		<path fill="#FFDCAE" d="M135.062,18.625c0.322,0,0.322-0.5,0-0.5S134.74,18.625,135.062,18.625L135.062,18.625z"/>
	</g>
</g>
<g>
	<g>
		<path fill="#FFDCAE" d="M134.875,18.625c0.322,0,0.322-0.5,0-0.5S134.553,18.625,134.875,18.625L134.875,18.625z"/>
	</g>
</g>
<g>
	<g>
		<path fill="#FFDCAE" d="M134.781,18.594c0.322,0,0.322-0.5,0-0.5S134.459,18.594,134.781,18.594L134.781,18.594z"/>
	</g>
</g>
<g>
	<g>
		<path fill="#FFDCAE" d="M140.781,18.25c-0.396,0.045-0.793,0.014-1.188,0.062c-0.312,0.038-0.33,0.488,0,0.5
			c0.346,0.013,0.686-0.044,1.031-0.031c0.278,0.01,0.348-0.445,0.066-0.491c-0.3-0.049-0.577-0.042-0.879-0.009
			c-0.314,0.034-0.329,0.489,0,0.5c0.377,0.012,0.729-0.062,1.098-0.134c0.322-0.063,0.177-0.524-0.133-0.482
			c-0.39,0.053-0.762,0.068-1.152,0.022c0,0.167,0,0.333,0,0.5c0.323,0.022,0.646,0.004,0.969,0
			c-0.022-0.164-0.044-0.327-0.066-0.491c-0.232,0.045-0.421,0.044-0.652,0.022c0,0.167,0,0.333,0,0.5
			c0.114-0.009,0.229-0.02,0.344-0.031c0.314-0.031,0.328-0.5,0-0.5c-0.146,0-0.292,0-0.438,0c-0.322,0-0.322,0.5,0,0.5
			c0.146,0,0.292,0,0.438,0c0-0.167,0-0.333,0-0.5c-0.114,0.012-0.229,0.022-0.344,0.031c-0.323,0.027-0.321,0.47,0,0.5
			c0.272,0.025,0.518,0.012,0.785-0.04c0.281-0.055,0.211-0.495-0.066-0.491c-0.323,0.004-0.646,0.022-0.969,0
			c-0.326-0.022-0.312,0.463,0,0.5c0.437,0.051,0.853,0.019,1.285-0.04c-0.044-0.161-0.089-0.322-0.133-0.482
			c-0.324,0.063-0.634,0.127-0.965,0.116c0,0.167,0,0.333,0,0.5c0.253-0.027,0.492-0.05,0.746-0.009
			c0.022-0.164,0.044-0.328,0.066-0.491c-0.346-0.013-0.686,0.044-1.031,0.031c0,0.167,0,0.333,0,0.5
			c0.395-0.048,0.792-0.018,1.188-0.062C141.098,18.714,141.102,18.213,140.781,18.25L140.781,18.25z"/>
	</g>
</g>
<g>
	<g>
		<path fill="#FFDCAE" d="M142.473,24.978c-0.458-0.076-0.912-0.18-1.379-0.165c-0.276,0.008-0.348,0.423-0.066,0.491
			c0.29,0.07,0.558,0.088,0.852,0.031c0.317-0.062,0.182-0.54-0.133-0.482c-0.133,0.029-0.267,0.047-0.402,0.054
			c-0.32,0.021-0.322,0.521,0,0.5c0.181-0.012,0.356-0.039,0.535-0.071c-0.044-0.161-0.089-0.322-0.133-0.482
			c-0.204,0.04-0.387,0.017-0.586-0.031c-0.022,0.164-0.044,0.328-0.066,0.491c0.423-0.013,0.831,0.079,1.246,0.147
			C142.655,25.512,142.79,25.03,142.473,24.978L142.473,24.978z"/>
	</g>
</g>
<g>
	<g>
		<path fill="#FFDCAE" d="M138.125,24.844c-0.553,0.043-1.104-0.043-1.656,0c-0.263,0.021-0.362,0.443-0.066,0.491
			c0.291,0.047,0.585,0.047,0.875,0.094c0.022-0.164,0.044-0.328,0.066-0.491c-0.363,0.016-0.705-0.033-1.059-0.116
			c-0.313-0.073-0.446,0.409-0.133,0.482c0.397,0.093,0.782,0.151,1.191,0.134c0.269-0.012,0.356-0.444,0.066-0.491
			c-0.291-0.047-0.585-0.047-0.875-0.094c-0.022,0.164-0.044,0.328-0.066,0.491c0.553-0.043,1.104,0.043,1.656,0
			C138.444,25.319,138.446,24.819,138.125,24.844L138.125,24.844z"/>
	</g>
</g>
<g>
	<g>
		<path d="M137.406,25.562c-0.073,0-0.146,0-0.219,0c0.059,0.142,0.118,0.285,0.177,0.427c0.005,0,0.01,0.001,0.015,0.002
			c0.312-0.082,0.18-0.564-0.133-0.482c-0.1,0.026-0.157,0.061-0.235,0.127c-0.172,0.146-0.028,0.427,0.177,0.427
			c0.073,0,0.146,0,0.219,0C137.729,26.062,137.729,25.562,137.406,25.562L137.406,25.562z"/>
	</g>
</g>
<g>
	<g>
		<path d="M137.073,25.511c-0.011,0.01-0.021,0.021-0.031,0.031c-0.229,0.228,0.125,0.582,0.354,0.354
			c0.011-0.01,0.021-0.021,0.031-0.031C137.655,25.636,137.302,25.283,137.073,25.511L137.073,25.511z"/>
	</g>
</g>
</svg>
