<?xml version="1.0" encoding="utf-8"?>
<!-- Generator: Adobe Illustrator 16.0.0, SVG Export Plug-In . SVG Version: 6.00 Build 0)  -->
<!DOCTYPE svg PUBLIC "-//W3C//DTD SVG 1.1//EN" "http://www.w3.org/Graphics/SVG/1.1/DTD/svg11.dtd">
<svg version="1.1" id="Layer_1" xmlns="http://www.w3.org/2000/svg" xmlns:xlink="http://www.w3.org/1999/xlink" x="0px" y="0px"
	 width="90px" height="45px" viewBox="0 0 90 45" enable-background="new 0 0 90 45" xml:space="preserve">
<polygon fill="#8CC96E" stroke="#000000" stroke-miterlimit="10" points="3.007,9.786 3.007,39.219 9.076,39.219 9.076,24.502 
	32.128,39.002 37.168,35.832 13.774,21.116 32.667,9.231 21.41,9.231 8.635,17.267 8.635,9.231 "/>
<path fill="#FFDCAE" stroke="#000000" stroke-miterlimit="10" d="M49.796,15.451v18.473c0,0-0.391,5.295-6.656,5.295
	s-8.809-8.498-8.809-8.498h4.894c0,0-0.195,4.926,3.916,4.926s1.882-20.196,1.882-20.196H34.331v-4.064h52.662v4.064H49.796z"/>
<polygon fill="#83D3ED" points="69.999,11.387 70.911,15.451 68.603,15.451 67.563,11.387 "/>
<polygon fill="#FFFFFF" stroke="#000000" stroke-miterlimit="10" points="61.2,11.387 60.161,15.451 57.853,15.451 58.763,11.387 
	"/>
<polygon fill="#FFFFFF" points="59.132,10.199 58.599,12.125 60.958,12.125 61.2,10.199 "/>
<polygon fill="#FFFFFF" points="60.31,14.164 58.14,14.164 57.646,16.761 59.942,16.761 "/>
<ellipse fill="none" stroke="#000000" stroke-miterlimit="10" cx="64.381" cy="24.625" rx="4.993" ry="17.18"/>
<ellipse fill="none" stroke="#000000" stroke-miterlimit="10" cx="64.381" cy="24.625" rx="4.993" ry="17.18"/>
<ellipse fill="none" stroke="#000000" stroke-miterlimit="10" cx="64.381" cy="24.748" rx="7.282" ry="20.996"/>
<path fill="#FFFFFF" stroke="#000000" stroke-miterlimit="10" d="M70.911,15.45"/>
<polyline fill="#FFDCAE" stroke="#000000" stroke-miterlimit="10" points="67.563,11.388 69.999,11.388 70.911,15.45 68.603,15.45 
	"/>
<path fill="#00AEEF" stroke="#000000" stroke-miterlimit="10" d="M69.999,11.388"/>
<g>
	<g>
		<path fill="#FFDCAE" d="M67.741,14.286c0.043-0.153,0.248-0.995,0.42-0.749c0.184,0.26,0.021,0.32-0.08,0.58
			c-0.01,0.027,0.033,0.044,0.047,0.02c0.172-0.333,0.254-0.66,0.158-1.03c-0.01-0.031-0.057-0.018-0.049,0.014
			c0.055,0.213,0.096,0.686-0.027,0.869c0.057-0.084,0.117-0.152,0.154-0.247c0.002-0.009-0.002-0.018-0.008-0.024
			c-0.105-0.127-0.184-0.277-0.299-0.396c-0.008-0.008-0.02-0.009-0.029-0.004c-0.15,0.081-0.287,0.782-0.336,0.955
			C67.683,14.303,67.731,14.316,67.741,14.286L67.741,14.286z"/>
	</g>
</g>
<g>
	<g>
		<path fill="#FFDCAE" d="M68.562,14.115c-0.168-0.06-0.328-0.129-0.486-0.208c0.041,0.072,0.082,0.144,0.123,0.216
			c0.014-0.119,0.066-0.216,0.16-0.29c0.191-0.15,0.012-0.409-0.176-0.427c-0.266-0.025-0.512-0.13-0.777-0.155
			c0.059,0.142,0.119,0.285,0.178,0.427c0.24-0.22,0.502-0.374,0.832-0.394c-0.072-0.125-0.143-0.251-0.215-0.376
			c-0.164,0.301-0.377,0.471-0.688,0.61c0.115,0.114,0.229,0.228,0.342,0.342c0.322-0.476,0.268-0.931,0-1.419
			c-0.09-0.167-0.338-0.158-0.432,0c-0.059,0.101-0.096,0.21-0.156,0.312c0.152,0.02,0.305,0.04,0.457,0.06
			c-0.037-0.265-0.002-0.476,0.078-0.723c0.102-0.307-0.383-0.438-0.482-0.133c-0.109,0.339-0.129,0.636-0.078,0.988
			c0.033,0.225,0.357,0.229,0.457,0.06c0.061-0.101,0.098-0.21,0.156-0.312c-0.143,0-0.287,0-0.432,0
			c0.182,0.332,0.219,0.592,0,0.915c-0.154,0.229,0.137,0.434,0.342,0.342c0.385-0.172,0.664-0.42,0.867-0.79
			c0.086-0.157-0.02-0.388-0.217-0.376c-0.467,0.028-0.844,0.228-1.186,0.54c-0.176,0.16-0.025,0.408,0.176,0.427
			c0.266,0.025,0.512,0.13,0.777,0.155c-0.059-0.142-0.119-0.285-0.178-0.427c-0.197,0.157-0.277,0.4-0.307,0.644
			c-0.01,0.08,0.053,0.181,0.125,0.216c0.197,0.098,0.396,0.184,0.605,0.258C68.731,14.706,68.862,14.223,68.562,14.115
			L68.562,14.115z"/>
	</g>
</g>
<g>
	<g>
		<path fill="#FFDCAE" d="M67.659,12.589c0.078-0.078,0.156-0.156,0.234-0.234c0.227-0.229-0.127-0.582-0.354-0.354
			c-0.078,0.078-0.156,0.156-0.234,0.234C67.077,12.464,67.431,12.817,67.659,12.589L67.659,12.589z"/>
	</g>
</g>
<g>
	<g>
		<path fill="#FFDCAE" d="M67.249,12.273c0.322,0,0.322-0.5,0-0.5S66.927,12.273,67.249,12.273L67.249,12.273z"/>
	</g>
</g>
<g>
	<g>
		<path fill="#FFDCAE" d="M67.872,14.762c0.131,0,0.26,0,0.389,0c0.322,0,0.322-0.5,0-0.5c-0.078,0-0.156,0-0.234,0
			c-0.248,0-0.342,0.341-0.125,0.466c0.1,0.059,0.211,0.096,0.312,0.155c0.277,0.164,0.529-0.269,0.252-0.432
			c-0.102-0.06-0.211-0.096-0.312-0.155c-0.043,0.155-0.084,0.311-0.127,0.466c0.078,0,0.156,0,0.234,0c0.322,0,0.322-0.5,0-0.5
			c-0.129,0-0.258,0-0.389,0C67.55,14.262,67.55,14.762,67.872,14.762L67.872,14.762z"/>
	</g>
</g>
<g>
	<g>
		<path fill="#FFDCAE" d="M71.595,14.426c-0.562-0.142-1.125-0.163-1.701-0.164c0.023,0.164,0.045,0.327,0.066,0.491
			c0.658-0.158,1.371-0.229,1.926-0.648c0.156-0.117,0.178-0.409-0.059-0.457c-0.773-0.155-1.539-0.155-2.312,0
			c-0.279,0.057-0.211,0.497,0.066,0.491c0.471-0.01,0.928-0.086,1.391-0.164c0.279-0.047,0.213-0.508-0.066-0.491
			c-0.453,0.027-0.836,0.177-1.215,0.423c-0.188,0.121-0.148,0.386,0.059,0.457c0.461,0.157,0.918,0.158,1.377,0
			c0.309-0.106,0.184-0.537-0.133-0.482c-0.387,0.067-0.781,0.075-1.166,0.156c0.082,0.14,0.162,0.279,0.244,0.418
			c0.488-0.466,1.076-0.795,1.66-1.127c-0.084-0.144-0.168-0.288-0.252-0.432c-0.426,0.249-0.854,0.433-1.34,0.519
			c0.064,0.152,0.127,0.305,0.191,0.457c0.408-0.174,0.787-0.395,1.168-0.622c0.225-0.134,0.113-0.446-0.127-0.466
			c-0.588-0.049-1.088,0.166-1.604,0.423c-0.252,0.125-0.072,0.562,0.191,0.457c0.389-0.156,0.777-0.311,1.166-0.466
			c0.229-0.092,0.246-0.396,0-0.482c-0.201-0.071-0.396-0.084-0.611-0.086c0.023,0.164,0.045,0.327,0.066,0.491
			c0.164-0.026,0.314-0.086,0.449-0.181c0.191-0.133,0.141-0.477-0.125-0.466c-0.355,0.015-0.672,0.087-0.982,0.268
			c-0.211,0.123-0.125,0.473,0.127,0.466c0.43-0.012,0.822-0.091,1.215-0.268c0.193-0.086,0.146-0.422-0.059-0.457
			c-0.471-0.08-0.924-0.079-1.379,0.078c0.064,0.152,0.129,0.305,0.193,0.457c0.16-0.097,0.307-0.214,0.467-0.312
			c0.193-0.117,0.143-0.388-0.061-0.457c-0.227-0.078-0.449-0.084-0.688-0.086c0,0.167,0,0.333,0,0.5
			c0.492,0,0.979-0.015,1.467-0.087c0.242-0.036,0.236-0.443,0-0.482c-0.488-0.081-0.973-0.155-1.467-0.165
			c-0.322-0.006-0.322,0.494,0,0.5c0.449,0.009,0.891,0.073,1.334,0.147c0-0.161,0-0.322,0-0.482
			c-0.443,0.065-0.889,0.069-1.334,0.069c-0.322,0-0.322,0.498,0,0.5c0.193,0.001,0.371,0.005,0.555,0.068
			c-0.02-0.152-0.039-0.305-0.059-0.457c-0.162,0.097-0.307,0.214-0.467,0.312c-0.236,0.143-0.084,0.552,0.191,0.457
			c0.369-0.127,0.73-0.143,1.113-0.078c-0.02-0.152-0.041-0.305-0.061-0.457c-0.311,0.14-0.625,0.189-0.963,0.199
			c0.041,0.155,0.084,0.311,0.125,0.466c0.232-0.135,0.463-0.188,0.73-0.199c-0.043-0.155-0.084-0.311-0.127-0.466
			c-0.104,0.072-0.205,0.111-0.33,0.13c-0.285,0.046-0.207,0.489,0.066,0.491c0.168,0.001,0.32,0.013,0.479,0.069
			c0-0.161,0-0.322,0-0.482c-0.389,0.156-0.777,0.311-1.166,0.466c0.064,0.152,0.129,0.305,0.193,0.457
			c0.443-0.221,0.846-0.396,1.352-0.354c-0.041-0.155-0.084-0.311-0.125-0.466c-0.381,0.227-0.76,0.448-1.168,0.622
			c-0.279,0.119-0.064,0.502,0.193,0.457c0.527-0.093,0.998-0.3,1.459-0.569c0.277-0.163,0.027-0.591-0.252-0.432
			c-0.621,0.354-1.242,0.71-1.762,1.206c-0.191,0.182,0.01,0.467,0.242,0.418c0.385-0.081,0.779-0.089,1.166-0.156
			c-0.043-0.161-0.088-0.322-0.133-0.482c-0.379,0.13-0.732,0.13-1.111,0c0.02,0.152,0.041,0.305,0.061,0.457
			c0.301-0.195,0.598-0.333,0.963-0.354c-0.023-0.164-0.045-0.327-0.066-0.491c-0.42,0.071-0.832,0.138-1.258,0.146
			c0.023,0.164,0.045,0.327,0.066,0.491c0.684-0.138,1.363-0.138,2.047,0c-0.02-0.152-0.041-0.305-0.061-0.457
			c-0.52,0.391-1.191,0.45-1.807,0.597c-0.277,0.067-0.213,0.491,0.066,0.491c0.531,0,1.049,0.015,1.568,0.146
			C71.774,14.987,71.907,14.505,71.595,14.426L71.595,14.426z"/>
	</g>
</g>
<g>
	<g>
		<path fill="#FFDCAE" d="M70.673,11.851c-0.57,0-1.143,0-1.713,0c-0.322,0-0.322,0.5,0,0.5c0.57,0,1.143,0,1.713,0
			C70.995,12.351,70.995,11.851,70.673,11.851L70.673,11.851z"/>
	</g>
</g>
<g>
	<g>
		<path fill="#FFDCAE" d="M71.294,14.573c-1.123-0.017-2.297-0.341-3.412-0.147c-0.316,0.055-0.182,0.537,0.133,0.482
			c1.061-0.184,2.211,0.149,3.279,0.165C71.616,15.078,71.616,14.578,71.294,14.573L71.294,14.573z"/>
	</g>
</g>
</svg>
