<?xml version="1.0" encoding="utf-8"?>
<!-- Generator: Adobe Illustrator 16.0.0, SVG Export Plug-In . SVG Version: 6.00 Build 0)  -->
<!DOCTYPE svg PUBLIC "-//W3C//DTD SVG 1.1//EN" "http://www.w3.org/Graphics/SVG/1.1/DTD/svg11.dtd">
<svg version="1.1" xmlns="http://www.w3.org/2000/svg" xmlns:xlink="http://www.w3.org/1999/xlink" x="0px" y="0px" width="180px"
	 height="90px" viewBox="0 0 180 90" enable-background="new 0 0 180 90" xml:space="preserve">
<g id="kj">
	<polygon fill="#426D29" points="2.061,16.006 2.061,78.552 14.956,78.552 14.956,47.278 63.943,78.093 74.655,71.356 24.94,40.082 
		65.089,14.827 41.166,14.827 14.021,31.904 14.021,14.827 	"/>
	<path fill="#FFDCAE" d="M105.729,23.519l-1.019,36.223c0,0,0.106,19.339-14.542,19.339c-14.646,0-20.592-19.864-20.592-19.864
		h11.439c0,0-0.457,11.515,9.152,11.515c9.61,0,4.401-47.212,4.401-47.212H69.577v-9.501h64.454l-0.474,9.708L105.729,23.519
		L105.729,23.519z"/>
</g>
<g id="o">
	<path fill="#FFFFFF" d="M143.682,2.374c-13.332,0-24.141,17.4-24.141,38.864c0,21.462,10.809,38.865,24.141,38.865
		s24.141-17.402,24.141-38.865C167.822,19.774,157.014,2.374,143.682,2.374z M143.682,76.459c-12.083,0-19.783-15.769-19.783-35.221
		s7.7-35.221,19.783-35.221c12.084,0,21.877,15.769,21.877,35.221C165.559,60.689,155.766,76.459,143.682,76.459z"/>
</g>
<g id="rest_x5F_of_x5F_j">
	<rect x="133.557" y="14.018" fill="#FFDCAE" width="43.693" height="9.708"/>
</g>
</svg>
