<?xml version="1.0" encoding="utf-8"?>
<!-- Generator: Adobe Illustrator 16.0.0, SVG Export Plug-In . SVG Version: 6.00 Build 0)  -->
<!DOCTYPE svg PUBLIC "-//W3C//DTD SVG 1.1//EN" "http://www.w3.org/Graphics/SVG/1.1/DTD/svg11.dtd">
<svg version="1.1" id="Layer_1" xmlns="http://www.w3.org/2000/svg" xmlns:xlink="http://www.w3.org/1999/xlink" x="0px" y="0px"
	 width="300px" height="300px" viewBox="0 0 300 300" enable-background="new 0 0 300 300" xml:space="preserve">
<path fill="#FFD17D" stroke="#000000" stroke-miterlimit="10" d="M142.897,28.486l-61.815,6.965L63.172,69.282l-8.955,72.803
	c0,0-13.599,4.808-7.297,33.331c6.301,28.523,14.925,35.936,20.895,37.536c0,0,25.87,82.194,80.761,83.19
	c54.892,0.995,79.104-80.375,79.436-90.104c0,0,14.261-8.401,21.226-21.006c0,0,11.965-26.45,9.619-38.307
	c0,0,3.317-18.74-20.729-8.457L202.111,38.104L142.897,28.486z"/>
<path fill="#4F3E2F" stroke="#000000" stroke-miterlimit="10" d="M65.991,187.024l-3.98-56.218c0,0-4.975-3.483,3.98-23.88v-15.92
	c0,0-6.468-9.949,17.413-39.302c0,0-0.498-7.463,4.975-8.955c5.472-1.493,8.955,4.477,8.955,4.477s5.97-1.492,7.462,0.996
	c1.493,2.487,3.483,3.979,8.956,4.477c5.472,0.497,8.955-5.97,8.955-5.97s-4.478-5.473,0-7.463c4.478-1.989,3.483,7.96,14.427,4.478
	l7.463,0.995c0,0,5.971,2.487,9.949,2.487c3.98,0,11.443-3.482,16.916-0.497c0,0,4.975-5.473,8.458-3.482
	c3.481,1.99,18.407,10.447,19.402,11.442c0,0,2.984-1.493,3.979,0.995c0.996,2.487,14.428,38.806,14.428,38.806
	s10.945,22.388,8.458,74.128h3.481c0,0-3.481-21.393,8.459-30.347l-4.976-65.671c0,0-22.388-71.641-88.556-70.645
	C78.429,2.948,58.032,52.2,51.066,91.005v54.528C51.066,145.534,62.509,144.736,65.991,187.024z"/>
<path fill="#5B3714" stroke="#000000" stroke-miterlimit="10" d="M69.474,138.765c0,0,1.99-33.332,24.377-26.367
	c0,0,17.413-4.477,25.373-0.958c0,0,10.945,16.381-7.462,17.872C111.762,129.312,90.369,118.866,69.474,138.765z"/>
<path fill="#5B3714" stroke="#000000" stroke-miterlimit="10" d="M211.262,125.103c0,0,0-30.619-23.881-25.143
	c0,0-31.342-0.498-32.337,4.478c-0.994,4.975,0.498,14.925,2.986,15.92C160.518,121.354,203.302,100.496,211.262,125.103z"/>
<path fill="#FEECE3" stroke="#000000" stroke-miterlimit="10" d="M84.896,146.726c0,0,3.731-7.213,22.885-7.961
	c0,0,10.945,1.844,10.448,6.769C117.731,150.457,83.914,147.967,84.896,146.726z"/>
<path fill="#FDE3DA" stroke="#000000" stroke-miterlimit="10" d="M160.351,143.684c0,0,15.672-14.18,29.603-8.707
	c13.93,5.474,8.706,8.707,10.446,8.707C202.141,143.684,160.351,145.923,160.351,143.684z"/>
<path fill="#6FCACA" stroke="#000000" stroke-miterlimit="10" d="M95.964,140.367c0,0-0.869,6.359,6.842,6.359
	c7.712,0,6.716-6.359,6.716-6.359S112.007,137.74,95.964,140.367z"/>
<path fill="#6FCACA" stroke="#000000" stroke-miterlimit="10" d="M95.964,140.367c0,0-0.869,6.359,6.842,6.359
	c7.712,0,6.716-6.359,6.716-6.359S112.007,137.74,95.964,140.367z"/>
<path fill="#6FCACA" stroke="#000000" stroke-miterlimit="10" d="M95.964,140.367c0,0-0.869,6.359,6.842,6.359
	c7.712,0,6.716-6.359,6.716-6.359S112.007,137.74,95.964,140.367z"/>
<path fill="#6FCACA" stroke="#000000" stroke-miterlimit="10" d="M95.964,140.367c0,0-0.869,6.359,6.842,6.359
	c7.712,0,6.716-6.359,6.716-6.359S112.007,137.74,95.964,140.367z"/>
<path fill="#6FCACA" stroke="#000000" stroke-miterlimit="10" d="M173.574,135.66c0,0-1.098,8.854,7.765,8.854
	s5.751-10.388,5.751-10.388S177.585,133.855,173.574,135.66z"/>
<path stroke="#000000" stroke-miterlimit="10" d="M98.728,139.844c0,0-0.518,3.786,4.075,3.786c4.592,0,3.999-3.786,3.999-3.786
	S108.281,138.279,98.728,139.844z"/>
<path stroke="#000000" stroke-miterlimit="10" d="M175.996,135.031c0,0-0.652,5.257,4.61,5.257s3.415-6.168,3.415-6.168
	S178.378,133.958,175.996,135.031z"/>
<path fill="#FFFFFF" stroke="#000000" stroke-miterlimit="10" d="M111.49,221.635c0,0-4.533-6.951,31.025-6.01v10.058
	C142.516,225.683,118.167,225.645,111.49,221.635z"/>
<path fill="#FFFFFF" stroke="#000000" stroke-miterlimit="10" d="M142.515,225.683c0,0,24.349-0.038,31.024-4.048
	c0,0,4.532-6.951-31.024-6.01"/>
<path fill="#FFFFFF" stroke="#000000" stroke-miterlimit="10" d="M111.491,214.512c0,0-4.532,6.95,31.025,6.011v-10.058
	C142.516,210.465,118.167,210.502,111.491,214.512z"/>
<path fill="#FFFFFF" stroke="#000000" stroke-miterlimit="10" d="M142.516,210.465c0,0,24.349,0.037,31.024,4.047
	c0,0,4.532,6.95-31.024,6.011"/>
<path fill="#F594A4" stroke="#000000" stroke-miterlimit="10" d="M182.616,217.536c0,0-32.547-20.562-79.437,0
	C103.179,217.536,141.362,201.202,182.616,217.536z"/>
<path fill="#F594A4" stroke="#000000" stroke-miterlimit="10" d="M102.797,217.536c0,0,18.748,19.9,37.985,21.228
	c19.237,1.328,42.216-21.228,42.216-21.228S142.093,237.437,102.797,217.536z"/>
<path fill="#FFFFFF" stroke="#000000" stroke-miterlimit="10" d="M115.591,214.16c0,0-1.986,2.972,0,4.584"/>
<path fill="#FFFFFF" stroke="#000000" stroke-miterlimit="10" d="M122.454,212.952c0,0-1.454,6.849,0,7.003"/>
<line fill="#FFFFFF" stroke="#000000" stroke-miterlimit="10" x1="129.505" y1="211.788" x2="129.505" y2="219.955"/>
<line fill="#FFFFFF" stroke="#000000" stroke-miterlimit="10" x1="142.516" y1="210.465" x2="142.516" y2="220.522"/>
<line fill="#FFFFFF" stroke="#000000" stroke-miterlimit="10" x1="154.731" y1="211.196" x2="154.731" y2="219.955"/>
<path fill="#FFFFFF" stroke="#000000" stroke-miterlimit="10" d="M163.324,211.788c0,0,0.761,7.982,0,8.075"/>
<path fill="#FFFFFF" stroke="#000000" stroke-miterlimit="10" d="M169.262,214.16c0,0,0.781,3.29,0.034,4.584"/>
<path fill="none" stroke="#000000" stroke-miterlimit="10" d="M115.149,179.064c0,0,0.54,8.954,11.76,4.975
	c0,0,10.889,10.944,17.688,5.307c6.8-5.64,2.155-4.688,17.412-4.334c0,0,4.964-2.632,1.653-5.947"/>
<path fill="none" stroke="#000000" stroke-miterlimit="10" d="M150.069,146.726c0,0,1.366,17.743,4.662,19.071"/>
<path stroke="#000000" stroke-miterlimit="10" d="M114.115,218.073c0,0-3.685-1.055-2.624-3.562l-8.693,3.024l8.505,3.073
	L114.115,218.073z"/>
<path stroke="#000000" stroke-miterlimit="10" d="M170.917,218.073c0,0,2.998,1.512,2.811,2.536l8.506-3.073l-8.506-2.043
	C173.728,215.493,172.236,218.57,170.917,218.073z"/>
</svg>
