<?xml version="1.0" encoding="utf-8"?>
<!-- Generator: Adobe Illustrator 16.0.0, SVG Export Plug-In . SVG Version: 6.00 Build 0)  -->
<!DOCTYPE svg PUBLIC "-//W3C//DTD SVG 1.1//EN" "http://www.w3.org/Graphics/SVG/1.1/DTD/svg11.dtd">
<svg version="1.1" id="Layer_1" xmlns="http://www.w3.org/2000/svg" xmlns:xlink="http://www.w3.org/1999/xlink" x="0px" y="0px"
	 width="800px" height="532px" viewBox="0 0 800 532" enable-background="new 0 0 800 532" xml:space="preserve">
<ellipse fill="#FFF450" stroke="#000000" stroke-miterlimit="10" cx="399.266" cy="330.334" rx="170.132" ry="201.539"/>
<path fill="#FFFFFF" stroke="#000000" stroke-miterlimit="10" d="M295.36,296.129l73.837-19.837c0,0,3.045-60.419-50.24-47.793
	C265.672,241.123,295.36,296.129,295.36,296.129z"/>
<path fill="#FFFFFF" stroke="#000000" stroke-miterlimit="10" d="M409.17,273.926l67.913,39.648c0,0,34.473-44.673-13.64-74.599
	C415.335,209.048,409.17,273.926,409.17,273.926z"/>
<path fill="#F6ADCD" stroke="#000000" stroke-miterlimit="10" d="M263.388,319.576c0,0,160.617,125.342,258.053,27.952
	C521.441,347.528,352.452,746.102,263.388,319.576z"/>
<path fill="#C49A6C" stroke="#000000" stroke-miterlimit="10" d="M358.48,178.577c-2.809-7.241-10.041-10.412-16.153-7.085
	l-85.077,46.316c-6.112,3.326-8.79,11.893-5.981,19.134l0,0c2.809,7.24,10.042,10.412,16.153,7.085l85.076-46.316
	C358.611,194.383,361.289,185.817,358.48,178.577L358.48,178.577z"/>
<path fill="#C49A6C" stroke="#000000" stroke-miterlimit="10" d="M527.054,238.25c-2.72,8.559-10.78,12.885-18.004,9.666
	l-75.738-33.752c-7.225-3.221-10.878-12.768-8.159-21.326l0.075-0.238c2.718-8.558,10.776-12.887,18.002-9.666l75.738,33.752
	c7.225,3.221,10.877,12.769,8.16,21.326L527.054,238.25z"/>
<polygon fill="#113456" stroke="#000000" stroke-miterlimit="10" points="494.04,529.989 647.804,222.575 664.551,231.086 
	525.248,529.989 "/>
<path fill="#FFFFFF" stroke="#000000" stroke-miterlimit="10" d="M647.804,222.575"/>
<path fill="#FFF450" stroke="#000000" stroke-miterlimit="10" d="M694.101,260.439c0,0-39.582,40.579-50.239-39.677
	c-10.656-80.256,39.582-45.99,39.582-45.99s-2.283-4.508,0-11.723c2.285-7.214,5.33-12.624,5.33-12.624s-11.419-9.018-12.18-22.544
	c-0.761-13.526,17.507-11.722,17.507-11.722s26.643,1.804,25.121,18.035c-1.522,16.231-6.862,29.648-6.862,29.648
	s10.093,9.428,8.152,11.267c0,0,45.616,3.219,70.851,61.854c0,0,2.33,11.728,0,14.487c0,0-18.635-37.021-46.976-48.748
	c0,0,35.135,20.924,45.033,49.668c0,0,4.659,20.235,0.582,24.605c-4.075,4.368-13.004,5.746-13.004-5.06
	c0,0-15.335-33.342-40.182-40.7c0,0,33.775,11.497,43.287,52.888c0,0,2.718,32.42-31.444,2.987
	C714.496,257.661,694.101,260.439,694.101,260.439z"/>
<polygon fill="#113456" stroke="#000000" stroke-miterlimit="10" points="304.875,531.873 151.109,224.459 134.362,232.971 
	273.666,531.873 "/>
<path fill="#FFF450" stroke="#000000" stroke-miterlimit="10" d="M104.812,262.322c0,0,39.583,40.579,50.24-39.678
	c10.657-80.255-39.583-45.989-39.583-45.989s2.284-4.508,0-11.722c-2.284-7.215-5.329-12.625-5.329-12.625
	s11.418-9.019,12.18-22.544c0.761-13.527-17.509-11.723-17.509-11.723s-26.642,1.804-25.12,18.034
	c1.522,16.233,6.863,29.648,6.863,29.648s-10.094,9.429-8.152,11.269c0,0-45.617,3.218-70.852,61.855c0,0-2.33,11.727,0,14.487
	c0,0,18.635-37.022,46.976-48.75c0,0-35.135,20.925-45.035,49.67c0,0-4.659,20.235-0.583,24.604
	c4.076,4.368,13.005,5.748,13.005-5.059c0,0,15.335-33.343,40.182-40.701c0,0-33.775,11.497-43.287,52.888
	c0,0-2.718,32.422,31.444,2.988C84.419,259.543,104.812,262.322,104.812,262.322z"/>
<path fill="#21409A" stroke="#000000" stroke-miterlimit="10" d="M294.547,289.293l66.561-17.882c0,0,2.745-54.464-45.289-43.084
	C267.786,239.708,294.547,289.293,294.547,289.293z"/>
<path fill="#21409A" stroke="#000000" stroke-miterlimit="10" d="M412.877,266.619l59.647,34.825c0,0,30.278-39.237-11.979-65.522
	C418.29,209.635,412.877,266.619,412.877,266.619z"/>
</svg>
