<?xml version="1.0" encoding="utf-8"?>
<!-- Generator: Adobe Illustrator 16.0.0, SVG Export Plug-In . SVG Version: 6.00 Build 0)  -->
<!DOCTYPE svg PUBLIC "-//W3C//DTD SVG 1.1//EN" "http://www.w3.org/Graphics/SVG/1.1/DTD/svg11.dtd">
<svg version="1.1" xmlns="http://www.w3.org/2000/svg" xmlns:xlink="http://www.w3.org/1999/xlink" x="0px" y="0px" width="1500px"
	 height="500px" viewBox="0 0 1500 500" enable-background="new 0 0 1500 500" xml:space="preserve">
<g id="Layer_1">
	<path fill="#0097C1" stroke="#000000" stroke-miterlimit="10" d="M188.13,65.394c0,0-142.786,0-145.126,93.63
		c-2.343,93.633,145.126,53.839,145.126,53.839s77.247-25.75,77.247,60.861c0,86.604-198.966,60.863-198.966,60.863l4.68,49.152
		c0,0,276.216,7.02,252.808-114.697C300.49,147.321,184.143,159.024,184.143,159.024s-65.422,44.144-82.62-11.703
		c-17.195-55.844,82.62-37.452,82.62-37.452L188.13,65.394z"/>
</g>
<g id="Layer_2">
	<path fill="#465A65" stroke="#000000" stroke-miterlimit="10" d="M234.79,74.793v299.626h51.498V264.402
		c0,0,4.681-60.864,32.771-60.864c28.09,0,30.429,58.519,30.429,58.519v112.361h46.818V264.402c0,0,0-119.385-80.76-119.385h-31.6
		V74.793H234.79z"/>
</g>
<g id="Layer_3">
	<path fill="#44C8F5" stroke="#000000" stroke-miterlimit="10" d="M325.307,141.215v234.159h51.496V141.215
		c0,0,95.973-86.61,95.973,49.157h46.815c0,0-32.769-199.568-142.788-76.376l-4.68-40.156h-46.816V141.215z"/>
</g>
<g id="Layer_4">
	<path fill="#3E7C94" stroke="#000000" stroke-miterlimit="10" d="M449.909,301.895h69.053c0,0,16.384-100.66-69.053-100.66
		c-85.441,0-69.055,100.66-69.055,100.66h-0.631c0,0,2.523,81.923,139.368,81.923V342.85h-69.682V301.895z M450.538,226.399
		c42.719,0,34.526,50.327,34.526,50.327h-69.051C416.014,276.727,407.82,226.399,450.538,226.399z"/>
</g>
<g id="Layer_5">
	<path fill="#8ED8F8" stroke="#020202" stroke-miterlimit="10" d="M554.467,83.03v161.481c0,0-67.884-35.115-67.884,56.25
		c0,91.363,135.766,82.842,135.766,82.842V83.03H554.467z M554.467,349.846c0,0-39.794-11.71-42.136-49.084
		c-2.339-37.374,42.136-25.818,42.136-25.818V349.846z"/>
	<rect x="622.349" y="65.394" fill="#FAF185" stroke="#020202" stroke-miterlimit="10" width="835.377" height="54.826"/>
	<rect x="622.349" y="120.22" fill="#FAF185" stroke="#020202" stroke-miterlimit="10" width="835.377" height="54.824"/>
	<rect x="622.349" y="175.044" fill="#FAF185" stroke="#020202" stroke-miterlimit="10" width="835.377" height="54.826"/>
	<rect x="622.349" y="229.87" fill="#FAF185" stroke="#020202" stroke-miterlimit="10" width="835.377" height="54.828"/>
	<rect x="622.349" y="284.697" fill="#FAF185" stroke="#020202" stroke-miterlimit="10" width="835.377" height="54.823"/>
	<rect x="622.349" y="339.521" fill="#FAF185" stroke="#020202" stroke-miterlimit="10" width="835.377" height="54.828"/>
	<rect x="639.933" y="132.179" fill="none" width="1090.807" height="320.692"/>
	<text transform="matrix(1 0 0 1 639.9331 356.8066)" font-family="'Noteworthy-Light'" font-size="263.3392">Journal</text>
</g>
</svg>
