<?xml version="1.0" encoding="utf-8"?>
<!-- Generator: Adobe Illustrator 16.0.0, SVG Export Plug-In . SVG Version: 6.00 Build 0)  -->
<!DOCTYPE svg PUBLIC "-//W3C//DTD SVG 1.1//EN" "http://www.w3.org/Graphics/SVG/1.1/DTD/svg11.dtd">
<svg version="1.1" id="Layer_1" xmlns="http://www.w3.org/2000/svg" xmlns:xlink="http://www.w3.org/1999/xlink" x="0px" y="0px"
	 width="800px" height="532px" viewBox="0 0 800 532" enable-background="new 0 0 800 532" xml:space="preserve">
<rect fill="#113456" width="800" height="532"/>
<rect x="248.08" y="48.398" fill="none" width="362.564" height="158.17"/>
<text transform="matrix(1 0 0 1 248.0796 176.3481)" fill="#FFFFFF" font-family="'Noteworthy-Light'" font-size="150">Yew!!</text>
<path d="M557.138,266"/>
<path fill="#FFFFFF" d="M507.893,279.94c5.482,3.724,6.908,11.187,3.184,16.669L391.981,471.934
	c-3.725,5.481-11.188,6.906-16.67,3.183l-24.48-16.629c-5.481-3.724-6.908-11.188-3.184-16.67l119.095-175.323
	c3.725-5.482,11.188-6.907,16.67-3.184L507.893,279.94z"/>
<path fill="#FFFFFF" d="M273.521,380.838c2.774-6.018,8.418-9.333,12.607-7.402l117.019,53.939
	c4.189,1.932,5.335,8.375,2.562,14.395l-12.662,27.471c-2.774,6.018-8.419,9.332-12.608,7.401l-117.019-53.939
	c-4.189-1.932-5.335-8.376-2.561-14.394L273.521,380.838z"/>
</svg>
